<?xml version="1.0" encoding="utf-8"?>
<!-- Generator: Adobe Illustrator 16.0.0, SVG Export Plug-In . SVG Version: 6.00 Build 0)  -->
<!DOCTYPE svg PUBLIC "-//W3C//DTD SVG 1.1//EN" "http://www.w3.org/Graphics/SVG/1.1/DTD/svg11.dtd">
<svg version="1.1" id="Capa_1" xmlns="http://www.w3.org/2000/svg" xmlns:xlink="http://www.w3.org/1999/xlink" x="0px" y="0px"
	 width="38px" height="38px" viewBox="26 26 38 38" enable-background="new 26 26 38 38" xml:space="preserve">
<g>
	<path id="iTunes" fill="#F52853" d="M45,26c-10.493,0-19,8.507-19,19c0,10.492,8.507,19,19,19c10.492,0,19-8.508,19-19
		C64,34.507,55.492,26,45,26z M45,60.2c-8.394,0-15.2-6.806-15.2-15.2c0-8.394,6.806-15.2,15.2-15.2c8.395,0,15.2,6.806,15.2,15.2
		C60.2,53.395,53.395,60.2,45,60.2z M51.959,50.092c0.121,1.615-1.092,3.088-2.712,3.289c-1.618,0.201-3.034-0.945-3.155-2.562
		c-0.123-1.614,1.094-3.088,2.711-3.288c0.514-0.062,1.002,0.009,1.44,0.186v-7.936l-7.601,1.414v9.914h-0.014
		c0.003,0.028,0.01,0.054,0.01,0.081c0.123,1.617-1.091,3.086-2.708,3.288c-1.622,0.2-3.032-0.946-3.155-2.561
		c-0.125-1.616,1.089-3.089,2.709-3.288c0.512-0.064,1.002,0.009,1.44,0.188V37.389v-0.002l11.025-1.883L51.96,35.5v0.001
		l0.005-0.001l-0.005,0.05v14.461h-0.015C51.951,50.039,51.956,50.063,51.959,50.092z"/>
</g>
</svg>
