<?xml version="1.0" encoding="utf-8"?>
<!-- Generator: Adobe Illustrator 16.0.0, SVG Export Plug-In . SVG Version: 6.00 Build 0)  -->
<!DOCTYPE svg PUBLIC "-//W3C//DTD SVG 1.1//EN" "http://www.w3.org/Graphics/SVG/1.1/DTD/svg11.dtd">
<svg version="1.1" id="Capa_1" xmlns="http://www.w3.org/2000/svg" xmlns:xlink="http://www.w3.org/1999/xlink" x="0px" y="0px"
	 width="33px" height="23px" viewBox="0 0 33 23" enable-background="new 0 0 33 23" xml:space="preserve">
<g>
	<g id="_x33__32_">
		<g>
			<path fill="#F52853" d="M3.136,0C1.404,0,0,1.404,0,3.136c0,1.732,1.404,3.137,3.136,3.137c1.732,0,3.137-1.404,3.137-3.137
				C6.273,1.404,4.869,0,3.136,0z M3.136,8.363C1.404,8.363,0,9.769,0,11.5c0,1.732,1.404,3.137,3.136,3.137
				c1.732,0,3.137-1.404,3.137-3.137C6.273,9.769,4.869,8.363,3.136,8.363z M3.136,16.728C1.404,16.728,0,18.132,0,19.863
				C0,21.597,1.404,23,3.136,23c1.732,0,3.137-1.403,3.137-3.137C6.273,18.132,4.869,16.728,3.136,16.728z M10.455,5.228h19.864
				c1.155,0,2.091-0.936,2.091-2.092c0-1.154-0.936-2.09-2.091-2.09H10.455c-1.155,0-2.091,0.936-2.091,2.09
				C8.364,4.292,9.299,5.228,10.455,5.228z M30.318,9.409H10.455c-1.155,0-2.091,0.936-2.091,2.091s0.936,2.091,2.091,2.091h19.864
				c1.155,0,2.091-0.936,2.091-2.091S31.474,9.409,30.318,9.409z M30.318,17.772H10.455c-1.155,0-2.091,0.937-2.091,2.091
				c0,1.156,0.936,2.091,2.091,2.091h19.864c1.155,0,2.091-0.935,2.091-2.091C32.409,18.709,31.474,17.772,30.318,17.772z"/>
		</g>
	</g>
</g>
</svg>
