<?xml version="1.0" encoding="utf-8"?>
<!-- Generator: Adobe Illustrator 16.0.0, SVG Export Plug-In . SVG Version: 6.00 Build 0)  -->
<!DOCTYPE svg PUBLIC "-//W3C//DTD SVG 1.1//EN" "http://www.w3.org/Graphics/SVG/1.1/DTD/svg11.dtd">
<svg version="1.1" id="Capa_1" xmlns="http://www.w3.org/2000/svg" xmlns:xlink="http://www.w3.org/1999/xlink" x="0px" y="0px"
	 width="40.31px" height="23px" viewBox="235.014 254.668 40.31 23" enable-background="new 235.014 254.668 40.31 23"
	 xml:space="preserve">
<g>
	<g>
		<path fill="#F52853" d="M270.756,264.284c0.574-0.741,1.027-1.336,1.365-1.784c2.42-3.218,3.469-5.274,3.148-6.17l-0.127-0.21
			c-0.084-0.126-0.301-0.242-0.65-0.346c-0.35-0.105-0.799-0.122-1.344-0.052l-6.045,0.042c-0.139-0.014-0.279-0.011-0.42,0.01
			c-0.139,0.021-0.231,0.042-0.274,0.062c-0.041,0.021-0.076,0.039-0.104,0.052l-0.084,0.063c-0.07,0.042-0.146,0.115-0.23,0.221
			c-0.084,0.105-0.154,0.227-0.211,0.367c-0.656,1.693-1.406,3.267-2.244,4.722c-0.52,0.868-0.994,1.621-1.428,2.256
			c-0.434,0.637-0.799,1.106-1.092,1.406c-0.295,0.301-0.561,0.543-0.797,0.724c-0.238,0.183-0.42,0.259-0.547,0.231
			c-0.125-0.027-0.244-0.056-0.356-0.084c-0.196-0.126-0.354-0.297-0.472-0.515c-0.119-0.216-0.199-0.489-0.242-0.818
			c-0.041-0.328-0.066-0.612-0.072-0.85c-0.008-0.238-0.004-0.573,0.01-1.008c0.014-0.434,0.021-0.727,0.021-0.881
			c0-0.532,0.01-1.109,0.031-1.732c0.021-0.622,0.039-1.116,0.053-1.48c0.014-0.363,0.021-0.749,0.021-1.154
			s-0.024-0.724-0.074-0.955c-0.049-0.23-0.122-0.455-0.22-0.672c-0.098-0.217-0.242-0.384-0.431-0.503
			c-0.188-0.119-0.423-0.213-0.703-0.284c-0.741-0.168-1.687-0.258-2.833-0.273c-2.604-0.027-4.275,0.141-5.017,0.504
			c-0.294,0.154-0.56,0.364-0.797,0.629c-0.252,0.309-0.287,0.477-0.105,0.504c0.84,0.125,1.434,0.427,1.784,0.903l0.126,0.251
			c0.098,0.183,0.196,0.504,0.293,0.966c0.098,0.461,0.161,0.972,0.189,1.532c0.07,1.021,0.07,1.895,0,2.624
			c-0.07,0.728-0.136,1.294-0.199,1.699c-0.063,0.406-0.158,0.735-0.283,0.986c-0.126,0.252-0.21,0.406-0.252,0.463
			c-0.042,0.055-0.077,0.09-0.104,0.104c-0.183,0.069-0.371,0.104-0.567,0.104c-0.196,0-0.434-0.099-0.714-0.294
			c-0.279-0.195-0.57-0.464-0.871-0.808c-0.301-0.343-0.64-0.822-1.018-1.438c-0.378-0.615-0.77-1.343-1.175-2.183l-0.336-0.609
			c-0.209-0.391-0.497-0.961-0.86-1.71c-0.364-0.749-0.686-1.472-0.965-2.172c-0.112-0.294-0.28-0.518-0.503-0.672l-0.105-0.062
			c-0.07-0.056-0.182-0.116-0.335-0.178c-0.154-0.063-0.315-0.108-0.483-0.137l-5.751,0.042c-0.587,0-0.986,0.133-1.196,0.399
			l-0.084,0.125c-0.042,0.07-0.063,0.183-0.063,0.336c0,0.154,0.042,0.343,0.126,0.566c0.84,1.974,1.753,3.876,2.739,5.709
			c0.987,1.833,1.844,3.31,2.571,4.429c0.728,1.119,1.469,2.176,2.225,3.17c0.756,0.993,1.256,1.629,1.5,1.908
			c0.245,0.281,0.437,0.49,0.577,0.631l0.524,0.504c0.336,0.336,0.83,0.737,1.48,1.207c0.651,0.469,1.371,0.93,2.162,1.385
			c0.79,0.455,1.71,0.825,2.76,1.112c1.048,0.287,2.069,0.403,3.063,0.347h2.414c0.49-0.043,0.86-0.195,1.111-0.462l0.084-0.104
			c0.057-0.084,0.109-0.213,0.158-0.389c0.049-0.175,0.074-0.367,0.074-0.576c-0.016-0.602,0.031-1.145,0.136-1.627
			c0.104-0.483,0.224-0.847,0.356-1.092c0.134-0.244,0.283-0.451,0.451-0.619c0.167-0.169,0.287-0.27,0.357-0.305
			c0.07-0.033,0.127-0.059,0.168-0.073c0.336-0.112,0.73-0.004,1.186,0.325c0.455,0.33,0.881,0.734,1.281,1.217
			c0.398,0.483,0.877,1.025,1.438,1.627c0.559,0.602,1.049,1.049,1.469,1.344l0.42,0.252c0.279,0.168,0.645,0.321,1.092,0.462
			c0.447,0.14,0.84,0.175,1.176,0.104l5.373-0.084c0.531,0,0.943-0.088,1.238-0.263c0.293-0.173,0.469-0.367,0.523-0.577
			c0.057-0.209,0.061-0.446,0.012-0.713c-0.049-0.266-0.1-0.451-0.146-0.555c-0.051-0.105-0.096-0.193-0.139-0.264
			c-0.699-1.259-2.035-2.806-4.008-4.639l-0.043-0.041l-0.02-0.021l-0.021-0.021h-0.021c-0.895-0.854-1.461-1.428-1.699-1.722
			c-0.434-0.559-0.531-1.125-0.293-1.699C269.036,266.6,269.665,265.684,270.756,264.284z"/>
	</g>
</g>
</svg>
