<?xml version="1.0" encoding="utf-8"?>
<!-- Generator: Adobe Illustrator 16.0.0, SVG Export Plug-In . SVG Version: 6.00 Build 0)  -->
<!DOCTYPE svg PUBLIC "-//W3C//DTD SVG 1.1//EN" "http://www.w3.org/Graphics/SVG/1.1/DTD/svg11.dtd">
<svg version="1.1" id="Capa_1" xmlns="http://www.w3.org/2000/svg" xmlns:xlink="http://www.w3.org/1999/xlink" x="0px" y="0px"
	 width="39px" height="30px" viewBox="-6.761 -3.262 39 30" enable-background="new -6.761 -3.262 39 30" xml:space="preserve">
<g>
	<path fill="#F52853" d="M19.244,20.353c-0.649,0-1.299-0.264-1.771-0.785c-1.211-1.338-2.935-2.1-4.73-2.1
		c-1.827,0-3.507,0.738-4.728,2.092c-0.886,0.979-2.399,1.053-3.38,0.162c-0.979-0.889-1.054-2.4-0.166-3.377
		c2.106-2.328,5.125-3.66,8.273-3.66c3.145,0,6.161,1.333,8.277,3.666c0.886,0.98,0.81,2.492-0.168,3.379
		C20.393,20.15,19.819,20.353,19.244,20.353z"/>
	<path fill="#F52853" d="M24.551,14.369c-0.608,0-1.22-0.23-1.686-0.697c-2.709-2.693-6.303-4.175-10.125-4.175
		c-3.828,0-7.424,1.479-10.128,4.167c-0.934,0.932-2.451,0.926-3.382-0.01c-0.93-0.935-0.927-2.453,0.011-3.384
		c3.604-3.583,8.398-5.557,13.5-5.557c5.094,0,9.888,1.978,13.498,5.568c0.937,0.932,0.94,2.445,0.012,3.382
		C25.779,14.131,25.165,14.369,24.551,14.369z"/>
	<path fill="#F52853" d="M29.847,8.393c-0.595,0-1.189-0.221-1.654-0.666c-4.178-4.003-9.662-6.206-15.451-6.206
		c-5.802,0-11.289,2.201-15.454,6.2c-0.953,0.914-2.467,0.884-3.382-0.07C-7.011,6.7-6.979,5.183-6.026,4.27
		c5.06-4.857,11.725-7.532,18.766-7.532c7.027,0,13.69,2.677,18.762,7.537c0.953,0.913,0.984,2.428,0.071,3.38
		C31.104,8.149,30.476,8.393,29.847,8.393z"/>
	<circle fill="#F52853" cx="12.742" cy="23.847" r="2.891"/>
</g>
</svg>
