<?xml version="1.0" encoding="utf-8"?>
<!-- Generator: Adobe Illustrator 16.0.0, SVG Export Plug-In . SVG Version: 6.00 Build 0)  -->
<!DOCTYPE svg PUBLIC "-//W3C//DTD SVG 1.1//EN" "http://www.w3.org/Graphics/SVG/1.1/DTD/svg11.dtd">
<svg version="1.1" id="Layer_1" xmlns="http://www.w3.org/2000/svg" xmlns:xlink="http://www.w3.org/1999/xlink" x="0px" y="0px"
	 width="250px" height="86.888px" viewBox="0 0 250 86.888" enable-background="new 0 0 250 86.888" xml:space="preserve">
<g>
	<path fill="#EE2E55" d="M32.94,21.956h4.733c0.31,0,0.563-0.255,0.563-0.552c0-0.313-0.253-0.566-0.563-0.566H32.94
		c-0.301,0-0.559,0.253-0.559,0.566C32.382,21.701,32.64,21.956,32.94,21.956z M35.306,63.439c-1.354,0-2.459,1.108-2.459,2.468
		c0,1.356,1.105,2.461,2.459,2.461c1.361,0,2.463-1.104,2.463-2.461C37.769,64.548,36.667,63.439,35.306,63.439z M23.229,61.33
		h24.158V25.602H23.229V61.33z M100.686,49.597c-1.145,0-2.179,0.378-3.113,1.138c-0.935,0.77-1.54,1.766-1.829,2.999
		c-0.141,0.577-0.212,1.047-0.212,1.421v3.479c0,1.522,0.458,2.809,1.396,3.854c0.93,1.037,2.144,1.563,3.632,1.563
		c1.744,0,3.116-0.669,4.089-2.021c0.974-1.347,1.457-3.124,1.457-5.338c0-2.03-0.452-3.71-1.371-5.025
		C103.725,50.298,102.379,49.597,100.686,49.597z M185.407,49.309c-1.857,0-3.279,0.825-4.248,2.485
		c-0.842,1.367-1.252,3.035-1.252,5.01c0,1.923,0.41,3.562,1.252,4.933c0.994,1.657,2.398,2.482,4.215,2.482
		c1.766,0,3.162-0.836,4.158-2.534c0.867-1.387,1.299-3.051,1.299-4.962c0-1.912-0.414-3.562-1.242-4.929
		C188.6,50.134,187.215,49.309,185.407,49.309z M123.654,49.597c-1.15,0-2.179,0.378-3.114,1.138
		c-0.932,0.77-1.544,1.766-1.832,2.999c-0.143,0.577-0.211,1.047-0.211,1.421v3.479c0,1.522,0.459,2.809,1.396,3.854
		c0.93,1.037,2.143,1.563,3.627,1.563c1.758,0,3.118-0.669,4.094-2.021c0.977-1.347,1.467-3.124,1.467-5.338
		c0-2.03-0.463-3.71-1.377-5.025C126.692,50.298,125.344,49.597,123.654,49.597z M75.66,42.12h-0.081
		c-0.291,1.233-0.744,3.051-1.381,5.463l-2.409,7.57h7.783l-2.441-7.57C76.867,46.805,76.374,44.983,75.66,42.12z M220.631,49.082
		c-1.516,0-2.748,0.647-3.697,1.9c-0.773,1.001-1.236,2.206-1.377,3.604h9.676c0.025-1.372-0.27-2.557-0.898-3.566
		C223.526,49.736,222.292,49.082,220.631,49.082z M96.144,28.456c0.064-0.2,0.064-0.399,0.064-0.599v-1.479
		c-1.922-0.021-3.756,0.375-3.756,2.01c0,1.062,0.685,1.55,1.547,1.55C95.104,29.938,95.877,29.229,96.144,28.456z M70.8,21.69
		c-0.288-0.906-0.531-1.922-0.752-2.784h-0.046c-0.219,0.862-0.463,1.899-0.707,2.784l-1.148,3.671h3.824L70.8,21.69z M239.434,0
		H10.564C4.739,0,0,4.738,0,10.565v65.771c0,5.818,4.739,10.551,10.564,10.551h228.87c5.826,0,10.566-4.732,10.566-10.551V10.565
		C250,4.738,245.26,0,239.434,0z M224.92,20.631c3.492,0,4.643,2.872,4.643,5.238c0,0.509-0.045,0.908-0.09,1.15h-7.207
		c0.066,1.944,1.57,2.783,3.316,2.783c1.26,0,2.145-0.196,2.984-0.484l0.398,1.856c-0.93,0.397-2.211,0.684-3.758,0.684
		c-3.492,0-5.549-2.142-5.549-5.436C219.659,23.437,221.471,20.631,224.92,20.631z M181.774,20.873l0.133,1.614h0.068
		c0.484-0.841,1.656-1.856,3.447-1.856c1.879,0,3.824,1.215,3.824,4.618v6.389h-2.719v-6.079c0-1.546-0.574-2.719-2.057-2.719
		c-1.082,0-1.834,0.773-2.123,1.593c-0.088,0.221-0.131,0.553-0.131,0.862v6.343h-2.719V24.08c0-1.24-0.045-2.277-0.09-3.207
		H181.774z M153.223,20.631c3.492,0,4.643,2.872,4.643,5.238c0,0.509-0.045,0.908-0.09,1.15h-7.207
		c0.066,1.944,1.57,2.783,3.316,2.783c1.26,0,2.143-0.196,2.984-0.484l0.396,1.856c-0.928,0.397-2.209,0.684-3.756,0.684
		c-3.492,0-5.549-2.142-5.549-5.436C147.961,23.437,149.774,20.631,153.223,20.631z M142.079,15.944h2.717v15.693h-2.717V15.944z
		 M120.516,22.552c-1.062,0-2.167,0.334-2.896,0.798l-0.531-1.77c0.795-0.486,2.188-0.949,3.89-0.949
		c3.449,0,4.446,2.188,4.446,4.552v3.87c0,0.973,0.043,1.922,0.174,2.585h-2.454l-0.197-1.192h-0.066
		c-0.641,0.84-1.769,1.438-3.184,1.438c-2.168,0-3.383-1.571-3.383-3.207c0-2.697,2.408-4.091,6.389-4.067v-0.177
		C122.703,23.726,122.415,22.552,120.516,22.552z M104.438,16.385c0.929,0,1.504,0.644,1.525,1.48c0,0.797-0.597,1.461-1.549,1.461
		c-0.906,0-1.502-0.664-1.502-1.461C102.913,17.028,103.531,16.385,104.438,16.385z M105.785,20.873v10.765h-2.717V20.873H105.785z
		 M68.39,16.739h3.471l4.841,14.898h-2.939l-1.348-4.223h-4.71l-1.283,4.223h-2.808L68.39,16.739z M50.283,66.145
		c0,2.626-2.14,4.754-4.764,4.754H25.102c-2.627,0-4.767-2.128-4.767-4.754v-45.37c0-2.625,2.14-4.759,4.767-4.759h20.417
		c2.624,0,4.764,2.134,4.764,4.759V66.145z M83.103,67.234l-2.707-8.508h-9.421l-2.583,8.508H63.58l9.324-28.985h5.769l9.38,28.985
		H83.103z M84.158,31.638h-2.677L77.48,20.873h2.941l1.744,5.461c0.311,0.949,0.531,1.812,0.73,2.697h0.067
		c0.198-0.886,0.442-1.727,0.729-2.697l1.724-5.461h2.853L84.158,31.638z M89.755,28.677c0-2.697,2.409-4.091,6.389-4.067v-0.177
		c0-0.707-0.288-1.881-2.189-1.881c-1.062,0-2.165,0.334-2.895,0.798l-0.531-1.77c0.795-0.486,2.188-0.949,3.891-0.949
		c3.448,0,4.443,2.188,4.443,4.552v3.87c0,0.973,0.043,1.922,0.177,2.585h-2.455l-0.197-1.192H96.32
		c-0.642,0.84-1.77,1.438-3.184,1.438C90.97,31.884,89.755,30.312,89.755,28.677z M107.939,64.962
		c-1.726,1.827-3.879,2.745-6.44,2.745c-2.774,0-4.76-0.987-5.968-2.973v10.977h-4.641v-22.51c0-2.235-0.061-4.521-0.178-6.869
		h4.086l0.256,3.312h0.081c1.556-2.486,3.903-3.731,7.062-3.731c2.465,0,4.517,0.966,6.175,2.921
		c1.644,1.945,2.471,4.517,2.471,7.696C110.843,60.095,109.878,62.894,107.939,64.962z M112.773,31.638h-2.718V15.944h2.718V31.638z
		 M130.903,64.962c-1.73,1.827-3.875,2.745-6.443,2.745c-2.767,0-4.755-0.987-5.963-2.973v10.977h-4.646v-22.51
		c0-2.235-0.06-4.521-0.172-6.869h4.075l0.269,3.312h0.08c1.559-2.486,3.901-3.731,7.055-3.731c2.467,0,4.523,0.966,6.172,2.921
		c1.652,1.945,2.475,4.517,2.475,7.696C133.805,60.095,132.84,62.894,130.903,64.962z M134.092,31.884
		c-1.393,0-2.631-0.531-3.404-1.858h-0.045l-0.131,1.612h-2.322c0.045-0.729,0.09-1.921,0.09-3.028V15.944h2.717v6.409h0.045
		c0.662-1.039,1.834-1.723,3.449-1.723c2.631,0,4.508,2.188,4.486,5.459C138.977,29.959,136.524,31.884,134.092,31.884z
		 M157.471,65.124c-1.898,1.694-4.527,2.535-7.898,2.535c-3.125,0-5.625-0.604-7.512-1.803l1.078-3.87
		c2.033,1.199,4.268,1.807,6.699,1.807c1.758,0,3.115-0.399,4.092-1.182c0.969-0.786,1.457-1.838,1.457-3.173
		c0-1.16-0.402-2.149-1.199-2.957c-0.811-0.803-2.133-1.542-3.998-2.235c-5.07-1.888-7.609-4.655-7.609-8.295
		c0-2.379,0.885-4.334,2.68-5.854c1.793-1.516,4.164-2.276,7.121-2.276c2.637,0,4.83,0.462,6.582,1.373l-1.172,3.785
		c-1.635-0.885-3.49-1.335-5.562-1.335c-1.637,0-2.92,0.416-3.844,1.2c-0.771,0.728-1.16,1.602-1.16,2.631
		c0,1.139,0.445,2.089,1.332,2.845c0.775,0.685,2.182,1.427,4.209,2.229c2.504,0.995,4.332,2.179,5.512,3.53
		c1.172,1.347,1.764,3.021,1.764,5.024C160.042,61.571,159.178,63.584,157.471,65.124z M173.844,49.812h-5.127v10.161
		c0,2.577,0.91,3.856,2.717,3.856c0.832,0,1.514-0.061,2.062-0.202l0.133,3.519c-0.92,0.344-2.121,0.517-3.611,0.517
		c-1.826,0-3.271-0.551-4.299-1.677c-1.041-1.112-1.555-2.993-1.555-5.631V49.812h-3.051v-3.479h3.051v-3.825l4.553-1.376v5.201
		h5.127V49.812z M171.225,31.884c-3.029,0-5.395-2.081-5.395-5.55c0-3.537,2.32-5.703,5.57-5.703c3.205,0,5.35,2.255,5.35,5.526
		C176.75,30.114,173.965,31.884,171.225,31.884z M192.899,64.532c-1.928,2.116-4.479,3.175-7.654,3.175
		c-3.072,0-5.525-1.016-7.342-3.052c-1.818-2.032-2.727-4.607-2.727-7.699c0-3.237,0.938-5.893,2.814-7.954
		c1.881-2.071,4.404-3.09,7.586-3.09c3.08,0,5.543,1.008,7.406,3.053c1.771,1.967,2.662,4.526,2.662,7.648
		C195.645,59.834,194.733,62.461,192.899,64.532z M197.698,20.873h1.525V18.86l2.676-0.752v2.765h2.586v2.033h-2.586v4.753
		c0,1.327,0.354,1.99,1.391,1.99c0.488,0,0.752-0.023,1.062-0.11l0.045,2.056c-0.398,0.153-1.127,0.289-1.967,0.289
		c-1.018,0-1.838-0.333-2.346-0.886c-0.596-0.618-0.861-1.614-0.861-3.029v-5.062h-1.525V20.873z M209.62,50.416
		c-0.457-0.082-0.949-0.118-1.463-0.118c-1.633,0-2.891,0.617-3.783,1.847c-0.775,1.092-1.162,2.448-1.162,4.124v10.966h-4.643
		V52.906c0-2.395-0.043-4.589-0.125-6.574h4.041l0.174,4.002h0.127c0.484-1.372,1.256-2.479,2.322-3.306
		c1.031-0.753,2.154-1.115,3.357-1.115c0.428,0,0.816,0.023,1.154,0.078V50.416z M210.325,25.183v6.455h-2.719V15.944h2.719v6.388
		h0.043c0.332-0.508,0.797-0.928,1.35-1.215c0.553-0.312,1.193-0.486,1.879-0.486c1.836,0,3.76,1.215,3.76,4.664v6.343h-2.721
		v-6.056c0-1.548-0.576-2.742-2.078-2.742c-1.061,0-1.812,0.709-2.121,1.525C210.346,24.609,210.325,24.896,210.325,25.183z
		 M229.495,57.91h-13.938c0.055,2.062,0.729,3.633,2.023,4.721c1.174,0.978,2.689,1.466,4.557,1.466
		c2.068,0,3.941-0.328,5.633-0.997l0.732,3.229c-1.971,0.867-4.312,1.287-7.016,1.287c-3.232,0-5.777-0.948-7.627-2.854
		c-1.848-1.906-2.779-4.465-2.779-7.674c0-3.159,0.865-5.776,2.58-7.879c1.816-2.233,4.252-3.349,7.314-3.349
		c3.02,0,5.295,1.115,6.838,3.349c1.23,1.783,1.85,3.979,1.85,6.589C229.663,56.624,229.602,57.327,229.495,57.91z M133.495,22.751
		c-1.104,0-2.121,0.798-2.408,1.99c-0.045,0.199-0.09,0.441-0.09,0.707v1.746c0,0.221,0.023,0.443,0.066,0.643
		c0.287,1.104,1.238,1.901,2.41,1.901c1.703,0,2.742-1.351,2.742-3.536C136.215,24.301,135.307,22.751,133.495,22.751z
		 M153.067,22.487c-1.68,0-2.387,1.525-2.498,2.63h4.73C155.321,24.123,154.879,22.487,153.067,22.487z M171.334,22.598
		c-1.924,0-2.697,1.878-2.697,3.669c0,2.078,1.039,3.648,2.676,3.648c1.547,0,2.631-1.504,2.631-3.691
		C173.944,24.543,173.192,22.598,171.334,22.598z M119.012,28.388c0,1.062,0.686,1.55,1.547,1.55c1.105,0,1.879-0.709,2.145-1.481
		c0.066-0.2,0.066-0.399,0.066-0.599v-1.479C120.847,26.356,119.012,26.753,119.012,28.388z M224.764,22.487
		c-1.68,0-2.387,1.525-2.498,2.63h4.73C227.02,24.123,226.577,22.487,224.764,22.487z"/>
</g>
</svg>
