<svg xmlns="http://www.w3.org/2000/svg" width="275.957" height="92.505" viewBox="0 0 275.957 92.505"><g fill="#EE2E55"><path d="M34.422 22.074h5.311c.348 0 .629-.281.629-.625 0-.348-.281-.629-.629-.629h-5.311c-.349 0-.633.281-.633.629 0 .344.284.625.633.625zM37.069 68.172c-1.783 0-3.236 1.453-3.236 3.243 0 1.791 1.453 3.244 3.236 3.244 1.794 0 3.251-1.453 3.251-3.244 0-1.79-1.457-3.243-3.251-3.243zM22.909 25.557h28.336v41.32h-28.336zM196.216 22.898c0-1.042-.851-1.517-2.7-1.517-.543 0-.828.026-1.514.094v2.962h1.304c1.606 0 2.91-.382 2.91-1.539zM110.635 53.173c-1.285 0-2.453.424-3.498 1.277-1.052.865-1.738 1.984-2.06 3.374-.161.648-.24 1.173-.24 1.596v3.913c0 1.716.521 3.161 1.569 4.338 1.048 1.164 2.408 1.752 4.082 1.752 1.966 0 3.509-.749 4.599-2.27 1.093-1.513 1.644-3.513 1.644-6 0-2.288-.509-4.179-1.543-5.65-1.137-1.543-2.643-2.33-4.553-2.33zM136.462 53.173c-1.289 0-2.449.424-3.502 1.277-1.045.865-1.734 1.984-2.056 3.374-.158.648-.24 1.173-.24 1.596v3.913c0 1.716.517 3.161 1.573 4.338 1.041 1.164 2.408 1.752 4.078 1.752 1.978 0 3.506-.749 4.604-2.27 1.101-1.513 1.647-3.513 1.647-6 0-2.288-.517-4.179-1.547-5.65-1.13-1.543-2.651-2.33-4.557-2.33zM193.351 26.092h-1.349v3.46c.641.067.971.094 1.536.094 1.423 0 3.06-.311 3.06-1.801 0-1.322-1.278-1.753-3.247-1.753zM93.456 21.385c-1.846 0-3.029 1.73-3.029 4.146 0 2.363 1.206 4.093 3.007 4.093 1.798 0 3.008-1.846 3.008-4.146-.001-2.341-1.188-4.093-2.986-4.093zM205.923 52.847c-2.094 0-3.692.926-4.782 2.794-.944 1.54-1.412 3.416-1.412 5.633 0 2.165.468 4.008 1.412 5.551 1.123 1.865 2.7 2.798 4.737 2.798 1.992 0 3.558-.948 4.686-2.854.974-1.562 1.457-3.435 1.457-5.584 0-2.153-.469-4.003-1.401-5.543-1.113-1.869-2.667-2.795-4.697-2.795zM173.06 29.624c1.801 0 3.003-1.846 3.003-4.146 0-2.341-1.18-4.093-2.98-4.093-1.847 0-3.034 1.73-3.034 4.146-.001 2.363 1.209 4.093 3.011 4.093zM266.681 0h-257.401c-5.127 0-9.28 4.157-9.28 9.273v73.971c0 5.115 4.153 9.262 9.28 9.262h257.4c5.131 0 9.276-4.146 9.276-9.262v-73.971c.001-5.116-4.144-9.273-9.275-9.273zm-93.505 19.512c3.317 0 5.542 2.393 5.542 5.898 0 3.595-2.299 6.108-5.729 6.108-3.363 0-5.543-2.513-5.543-5.921-.001-3.55 2.224-6.085 5.73-6.085zm-64.78 0c1.064 0 1.989.187 2.771.539l-.498 1.948c-.641-.307-1.4-.476-2.229-.476-2.247 0-3.644 1.682-3.644 3.978 0 2.442 1.539 3.955 3.644 3.955.783 0 1.565-.165 2.322-.472l.355 1.917c-.827.405-1.895.592-3.172.592-3.528 0-5.756-2.322-5.756-5.872.001-3.551 2.439-6.109 6.207-6.109zm-36.654 9.707c.637-1.135 1.254-2.464 1.637-3.719.468-1.727.685-3.764.685-6.112v-4.094h9.329v13.924l1.54.045-.165 6.019h-1.873l-.165-4.029h-10.041l-.168 4.029h-1.873l-.165-5.97 1.259-.093zm-17.853 42.463c0 2.947-2.4 5.348-5.352 5.348h-22.92c-2.951 0-5.352-2.4-5.352-5.348v-50.927c0-2.951 2.4-5.352 5.352-5.352h22.92c2.951 0 5.352 2.4 5.352 5.352v50.927zm36.968 1.329l-3.041-9.572h-10.591l-2.914 9.572h-5.412l10.494-32.598h6.486l10.546 32.598h-5.568zm2.506-41.492c-3.363 0-5.543-2.513-5.543-5.921 0-3.551 2.229-6.086 5.734-6.086 3.314 0 5.535 2.393 5.535 5.898 0 3.596-2.296 6.109-5.726 6.109zm25.429 38.931c-1.936 2.06-4.359 3.086-7.243 3.086-3.116 0-5.355-1.104-6.711-3.341v12.341h-5.213v-25.314c0-2.51-.075-5.082-.202-7.719h4.591l.289 3.719h.094c1.749-2.794 4.385-4.194 7.936-4.194 2.779 0 5.086 1.09 6.947 3.284 1.846 2.191 2.775 5.078 2.775 8.655-.001 4.011-1.083 7.154-3.263 9.483zm4.168-48.616h-3.505v9.427h-2.513v-9.427h-3.479v-2.086h9.498v2.086zm4.73-2.086l2.18 6.419c.214.591.427 1.348.686 2.273h.053c.165-.498.329-1.277.64-2.299l1.94-6.393h2.723l-2.914 7.981c-1.374 3.768-2.722 6.206-3.906 7.295-.899.805-1.846 1.277-2.816 1.446l-.618-2.153c1.326-.36 2.629-1.423 3.34-2.918l.188-.521-.142-.543-4.169-10.587h2.815zm16.928 50.702c-1.947 2.06-4.355 3.086-7.246 3.086-3.112 0-5.345-1.104-6.708-3.341v12.341h-5.224v-25.314c0-2.51-.064-5.082-.195-7.719h4.588l.303 3.719h.083c1.757-2.794 4.394-4.194 7.939-4.194 2.775 0 5.086 1.09 6.94 3.284 1.857 2.191 2.782 5.078 2.782 8.655.001 4.011-1.082 7.154-3.262 9.483zm4.457-39.189h-2.558v-9.427h-4.712v9.427h-2.558v-11.513h9.827v11.513zm7.195 0h-2.558v-11.513h2.558v4.528h4.81v-4.528h2.558v11.513h-2.558v-4.978h-4.81v4.978zm18.227 39.376c-2.131 1.902-5.089 2.85-8.876 2.85-3.517 0-6.329-.678-8.452-2.029l1.209-4.353c2.293 1.345 4.81 2.03 7.543 2.03 1.974 0 3.506-.445 4.596-1.326 1.094-.884 1.641-2.07 1.641-3.568 0-1.304-.45-2.42-1.353-3.322-.902-.906-2.396-1.741-4.498-2.517-5.7-2.124-8.558-5.232-8.558-9.329 0-2.682 1.004-4.876 3.022-6.581 2.015-1.708 4.686-2.565 8.003-2.565 2.971 0 5.431.521 7.408 1.547l-1.318 4.258c-1.843-1-3.929-1.502-6.258-1.502-1.843 0-3.288.464-4.326 1.348-.868.813-1.303 1.801-1.303 2.962 0 1.277.498 2.345 1.498 3.191.872.771 2.449 1.61 4.733 2.505 2.816 1.124 4.873 2.457 6.202 3.974 1.314 1.521 1.978 3.4 1.978 5.655.001 2.772-.969 5.038-2.891 6.772zm18.415-17.223h-5.768v11.426c0 2.902 1.022 4.341 3.06 4.341.93 0 1.701-.071 2.318-.229l.146 3.955c-1.033.394-2.386.584-4.06.584-2.057 0-3.682-.618-4.839-1.888-1.165-1.254-1.749-3.366-1.749-6.333v-11.856h-3.427v-3.91h3.427v-4.304l5.123-1.551v5.854h5.768v3.911zm-3.374-22.153v-11.419c.921-.143 2.464-.262 3.933-.262 1.872 0 5.183.24 5.183 2.962 0 1.397-1.108 2.202-2.296 2.46l.022.075c1.663.284 2.82 1.206 2.82 2.79 0 3.25-4.025 3.528-6.273 3.528-1.258.001-2.58-.067-3.389-.134zm24.812 38.705c-2.169 2.382-5.041 3.573-8.61 3.573-3.46 0-6.213-1.139-8.262-3.431-2.049-2.288-3.06-5.184-3.06-8.666 0-3.637 1.049-6.621 3.161-8.939 2.115-2.33 4.958-3.476 8.535-3.476 3.46 0 6.225 1.135 8.321 3.431 2 2.213 3 5.093 3 8.605.001 3.623-1.03 6.574-3.085 8.903zm18.796-15.871c-.513-.094-1.063-.132-1.641-.132-1.839 0-3.255.693-4.262 2.075-.869 1.229-1.3 2.753-1.3 4.641v12.332h-5.225v-16.115c0-2.692-.049-5.16-.143-7.393h4.547l.195 4.498h.139c.55-1.543 1.419-2.791 2.617-3.716 1.157-.85 2.42-1.255 3.771-1.255.483 0 .922.026 1.3.087v4.978zm22.355 8.422h-15.673c.067 2.322.819 4.09 2.276 5.311 1.318 1.102 3.022 1.652 5.124 1.652 2.325 0 4.434-.371 6.337-1.124l.823 3.633c-2.221.978-4.854 1.446-7.891 1.446-3.637 0-6.498-1.061-8.58-3.21-2.075-2.143-3.124-5.019-3.124-8.629 0-3.55.974-6.494 2.902-8.857 2.045-2.517 4.783-3.771 8.229-3.771 3.393 0 5.951 1.255 7.688 3.771 1.382 2 2.079 4.476 2.079 7.408.001.929-.066 1.719-.19 2.37zM245.535 52.593c-1.704 0-3.09.727-4.157 2.139-.876 1.123-1.389 2.482-1.55 4.052h10.883c.026-1.547-.304-2.876-1.011-4.011-.914-1.442-2.296-2.18-4.165-2.18zM80.835 17.449h-4.43v2.7c0 2.18-.236 4.168-.779 5.872-.33 1.09-.806 2.251-1.304 3.124h6.513v-11.696zM82.487 44.766h-.09c-.33 1.389-.832 3.427-1.55 6.138l-2.712 8.521h8.752l-2.745-8.521c-.296-.869-.846-2.917-1.655-6.138z"/></g></svg>