<?xml version="1.0" encoding="utf-8"?>
<!-- Generator: Adobe Illustrator 16.0.0, SVG Export Plug-In . SVG Version: 6.00 Build 0)  -->
<!DOCTYPE svg PUBLIC "-//W3C//DTD SVG 1.1//EN" "http://www.w3.org/Graphics/SVG/1.1/DTD/svg11.dtd">
<svg version="1.1" id="Layer_1" xmlns="http://www.w3.org/2000/svg" xmlns:xlink="http://www.w3.org/1999/xlink" x="0px" y="0px"
	 width="200px" height="71.127px" viewBox="0 0 200 71.127"  xml:space="preserve">
<path fill="#fff" d="M27.267,18.588h3.74c0.245,0,0.445-0.202,0.445-0.436c0-0.248-0.2-0.448-0.445-0.448h-3.74
	c-0.238,0-0.441,0.2-0.441,0.448C26.826,18.386,27.029,18.588,27.267,18.588z M29.136,51.362c-1.07,0-1.944,0.875-1.944,1.949
	c0,1.072,0.874,1.944,1.944,1.944c1.075,0,1.946-0.873,1.946-1.944C31.082,52.237,30.211,51.362,29.136,51.362z M19.595,49.696
	h19.086V21.468H19.595V49.696z M80.791,40.426c-0.904,0-1.723,0.298-2.461,0.898c-0.738,0.608-1.217,1.396-1.443,2.37
	c-0.113,0.455-0.168,0.826-0.168,1.123v2.75c0,1.201,0.361,2.218,1.102,3.045c0.734,0.82,1.693,1.234,2.869,1.234
	c1.379,0,2.463-0.529,3.23-1.596c0.77-1.064,1.15-2.469,1.15-4.217c0-1.604-0.355-2.932-1.082-3.971
	C83.191,40.979,82.128,40.426,80.791,40.426z M147.725,40.199c-1.472,0-2.593,0.651-3.357,1.964
	c-0.664,1.08-0.988,2.396-0.988,3.958c0,1.519,0.324,2.815,0.988,3.897c0.785,1.309,1.896,1.961,3.33,1.961
	c1.396,0,2.498-0.662,3.287-2.004c0.684-1.096,1.024-2.41,1.024-3.92c0-1.511-0.327-2.812-0.979-3.894
	C150.248,40.851,149.154,40.199,147.725,40.199z M98.935,40.426c-0.91,0-1.721,0.298-2.461,0.898
	c-0.734,0.608-1.219,1.396-1.447,2.37c-0.113,0.455-0.166,0.826-0.166,1.123v2.75c0,1.201,0.361,2.218,1.102,3.045
	c0.734,0.82,1.693,1.234,2.865,1.234c1.391,0,2.465-0.529,3.234-1.596c0.772-1.064,1.16-2.469,1.16-4.217
	c0-1.604-0.365-2.932-1.089-3.971C101.335,40.979,100.269,40.426,98.935,40.426z M61.019,34.52h-0.064
	c-0.23,0.973-0.588,2.409-1.091,4.315l-1.903,5.98h6.149l-1.929-5.98C61.972,38.22,61.582,36.781,61.019,34.52z M175.552,40.019
	c-1.194,0-2.168,0.513-2.922,1.502c-0.606,0.791-0.976,1.744-1.086,2.848h7.646c0.019-1.083-0.215-2.02-0.713-2.817
	C177.841,40.536,176.867,40.019,175.552,40.019z M77.201,23.723c0.053-0.157,0.053-0.314,0.053-0.473v-1.168
	c-1.52-0.018-2.969,0.296-2.969,1.588c0,0.838,0.541,1.223,1.223,1.223C76.38,24.894,76.992,24.335,77.201,23.723z M57.179,18.378
	c-0.228-0.716-0.419-1.52-0.594-2.2h-0.036c-0.173,0.681-0.366,1.501-0.559,2.2l-0.907,2.899h3.021L57.179,18.378z M178.941,17.54
	c2.76,0,3.67,2.271,3.67,4.141c0,0.402-0.035,0.716-0.07,0.908h-5.695c0.053,1.536,1.24,2.2,2.621,2.2
	c0.996,0,1.695-0.156,2.357-0.384l0.312,1.468c-0.731,0.313-1.743,0.541-2.969,0.541c-2.758,0-4.383-1.693-4.383-4.295
	C174.785,19.758,176.218,17.54,178.941,17.54z M144.854,17.732l0.104,1.275h0.057c0.381-0.665,1.31-1.468,2.723-1.468
	c1.484,0,3.021,0.961,3.021,3.651v5.047h-2.148v-4.804c0-1.222-0.452-2.147-1.623-2.147c-0.856,0-1.448,0.611-1.68,1.257
	c-0.067,0.175-0.104,0.437-0.104,0.681v5.013h-2.148v-5.973c0-0.979-0.035-1.799-0.07-2.533L144.854,17.732L144.854,17.732z
	 M122.296,17.54c2.759,0,3.668,2.271,3.668,4.141c0,0.402-0.034,0.716-0.069,0.908h-5.693c0.051,1.536,1.238,2.2,2.619,2.2
	c0.996,0,1.693-0.156,2.356-0.384l0.314,1.468c-0.734,0.313-1.746,0.541-2.97,0.541c-2.76,0-4.385-1.693-4.385-4.295
	C118.139,19.758,119.572,17.54,122.296,17.54z M113.492,13.838h2.146v12.399h-2.146V13.838z M96.455,19.059
	c-0.838,0-1.711,0.263-2.287,0.63l-0.42-1.398c0.629-0.384,1.729-0.751,3.074-0.751c2.725,0,3.512,1.73,3.512,3.598v3.057
	c0,0.769,0.033,1.52,0.137,2.043h-1.938l-0.156-0.942h-0.053c-0.506,0.663-1.398,1.135-2.516,1.135c-1.713,0-2.672-1.24-2.672-2.532
	c0-2.131,1.902-3.231,5.049-3.214v-0.14C98.185,19.986,97.955,19.059,96.455,19.059z M83.753,14.187c0.734,0,1.189,0.507,1.205,1.17
	c0,0.628-0.471,1.153-1.223,1.153c-0.715,0-1.186-0.524-1.186-1.153C82.55,14.693,83.039,14.187,83.753,14.187z M84.818,17.732
	v8.505h-2.145v-8.505H84.818z M55.274,14.466h2.741l3.825,11.771h-2.323l-1.064-3.336h-3.722l-1.014,3.336H51.5L55.274,14.466z
	 M40.969,53.5c0,2.074-1.691,3.755-3.764,3.755H21.074c-2.075,0-3.766-1.682-3.766-3.755V17.654c0-2.074,1.691-3.76,3.766-3.76
	h16.131c2.073,0,3.764,1.686,3.764,3.76V53.5z M66.898,54.36l-2.139-6.723h-7.443l-2.042,6.723h-3.801l7.367-22.899h4.557
	l7.41,22.899H66.898z M67.732,26.238h-2.115l-3.161-8.505h2.324l1.377,4.314c0.246,0.751,0.42,1.432,0.578,2.13h0.053
	c0.156-0.698,0.35-1.364,0.576-2.13l1.363-4.314h2.252L67.732,26.238z M72.154,23.898c0-2.131,1.904-3.231,5.047-3.214v-0.14
	c0-0.558-0.227-1.485-1.729-1.485c-0.84,0-1.711,0.263-2.287,0.63l-0.42-1.398c0.629-0.384,1.729-0.751,3.074-0.751
	c2.725,0,3.51,1.73,3.51,3.598v3.057c0,0.769,0.035,1.52,0.141,2.043h-1.94l-0.156-0.942h-0.053
	c-0.506,0.663-1.398,1.135-2.516,1.135C73.115,26.43,72.154,25.19,72.154,23.898z M86.521,52.565
	c-1.363,1.443-3.064,2.168-5.088,2.168c-2.191,0-3.762-0.779-4.715-2.348v8.67H73.05V43.274c0-1.767-0.047-3.572-0.141-5.428h3.229
	l0.203,2.616h0.064c1.229-1.964,3.084-2.948,5.578-2.948c1.947,0,3.568,0.764,4.879,2.309c1.297,1.537,1.951,3.568,1.951,6.08
	C88.814,48.722,88.052,50.931,86.521,52.565z M90.337,26.238h-2.145v-12.4h2.145V26.238z M104.662,52.565
	c-1.367,1.443-3.061,2.168-5.09,2.168c-2.186,0-3.758-0.779-4.711-2.348v8.67h-3.67V43.274c0-1.767-0.049-3.572-0.137-5.428h3.219
	l0.213,2.616h0.062c1.232-1.964,3.084-2.948,5.576-2.948c1.946,0,3.571,0.764,4.875,2.309c1.308,1.537,1.955,3.568,1.955,6.08
	C106.955,48.722,106.193,50.931,104.662,52.565z M107.182,26.43c-1.101,0-2.078-0.418-2.688-1.467h-0.037l-0.104,1.274h-1.834
	c0.033-0.576,0.07-1.519,0.07-2.393V13.838h2.146v5.064h0.035c0.522-0.821,1.448-1.363,2.725-1.363c2.078,0,3.564,1.73,3.545,4.314
	C111.041,24.911,109.104,26.43,107.182,26.43z M125.652,52.694c-1.498,1.338-3.576,2.003-6.24,2.003
	c-2.469,0-4.443-0.479-5.934-1.425l0.852-3.057c1.607,0.946,3.371,1.428,5.293,1.428c1.389,0,2.461-0.315,3.232-0.935
	c0.766-0.621,1.149-1.452,1.149-2.507c0-0.917-0.315-1.699-0.946-2.336c-0.64-0.635-1.687-1.219-3.158-1.766
	c-4.006-1.492-6.014-3.679-6.014-6.555c0-1.88,0.698-3.424,2.118-4.625c1.414-1.197,3.291-1.799,5.627-1.799
	c2.082,0,3.813,0.365,5.199,1.084l-0.927,2.991c-1.29-0.7-2.758-1.055-4.395-1.055c-1.295,0-2.309,0.329-3.037,0.947
	c-0.608,0.575-0.918,1.268-0.918,2.08c0,0.898,0.354,1.65,1.055,2.248c0.613,0.541,1.724,1.127,3.324,1.76
	c1.979,0.787,3.422,1.721,4.355,2.789c0.926,1.064,1.391,2.387,1.391,3.971C127.682,49.888,127.001,51.478,125.652,52.694z
	 M138.587,40.597h-4.049v8.026c0,2.036,0.719,3.047,2.146,3.047c0.656,0,1.193-0.048,1.629-0.159l0.105,2.779
	c-0.729,0.271-1.678,0.409-2.855,0.409c-1.442,0-2.582-0.437-3.395-1.325c-0.824-0.878-1.23-2.365-1.23-4.449v-8.328h-2.41v-2.75
	h2.41v-3.022l3.601-1.087v4.11h4.049V40.597z M136.518,26.43c-2.392,0-4.261-1.642-4.261-4.383c0-2.795,1.834-4.507,4.402-4.507
	c2.528,0,4.225,1.783,4.225,4.367C140.884,25.034,138.686,26.43,136.518,26.43z M153.643,52.226c-1.521,1.672-3.537,2.51-6.045,2.51
	c-2.431,0-4.367-0.803-5.804-2.412c-1.438-1.604-2.151-3.641-2.151-6.083c0-2.558,0.739-4.655,2.223-6.285
	c1.486-1.636,3.479-2.44,5.994-2.44c2.434,0,4.379,0.795,5.852,2.412c1.4,1.555,2.102,3.576,2.102,6.042
	C155.812,48.515,155.091,50.59,153.643,52.226z M157.436,17.732h1.203v-1.59l2.114-0.594v2.184h2.041v1.606h-2.041v3.756
	c0,1.048,0.279,1.572,1.101,1.572c0.385,0,0.596-0.019,0.838-0.087l0.035,1.624c-0.312,0.122-0.89,0.228-1.556,0.228
	c-0.803,0-1.448-0.262-1.853-0.699c-0.471-0.489-0.682-1.275-0.682-2.393v-4h-1.203v-1.607H157.436z M166.855,41.074
	c-0.361-0.065-0.752-0.093-1.156-0.093c-1.293,0-2.285,0.486-2.988,1.457c-0.615,0.863-0.92,1.936-0.92,3.259v8.663h-3.668V43.041
	c0-1.892-0.035-3.625-0.1-5.194h3.192l0.138,3.162h0.102c0.383-1.084,0.99-1.959,1.834-2.611c0.816-0.595,1.701-0.881,2.652-0.881
	c0.34,0,0.646,0.019,0.914,0.062V41.074z M167.41,21.138v5.1h-2.146v-12.4h2.146v5.047h0.035c0.262-0.401,0.629-0.734,1.065-0.96
	c0.437-0.246,0.943-0.386,1.484-0.386c1.448,0,2.971,0.961,2.971,3.686v5.013h-2.149v-4.785c0-1.223-0.453-2.166-1.644-2.166
	c-0.838,0-1.43,0.559-1.676,1.205C167.43,20.684,167.41,20.911,167.41,21.138z M182.555,46.994h-11.011
	c0.045,1.629,0.574,2.871,1.599,3.729c0.928,0.772,2.127,1.158,3.602,1.158c1.635,0,3.113-0.259,4.449-0.788l0.58,2.552
	c-1.56,0.685-3.408,1.017-5.543,1.017c-2.556,0-4.564-0.749-6.025-2.254c-1.461-1.507-2.197-3.528-2.197-6.062
	c0-2.496,0.686-4.564,2.039-6.226c1.434-1.765,3.357-2.646,5.779-2.646c2.385,0,4.182,0.881,5.402,2.646
	c0.971,1.409,1.461,3.144,1.461,5.205C182.689,45.978,182.641,46.534,182.555,46.994z M106.708,19.217
	c-0.873,0-1.676,0.629-1.901,1.571c-0.035,0.158-0.07,0.35-0.07,0.56v1.38c0,0.174,0.02,0.35,0.055,0.507
	c0.227,0.872,0.977,1.501,1.902,1.501c1.346,0,2.164-1.065,2.164-2.793C108.857,20.44,108.143,19.217,106.708,19.217z
	 M122.173,19.008c-1.325,0-1.887,1.205-1.973,2.078h3.737C123.955,20.299,123.605,19.008,122.173,19.008z M136.605,19.094
	c-1.519,0-2.129,1.485-2.129,2.899c0,1.643,0.817,2.883,2.112,2.883c1.222,0,2.076-1.188,2.076-2.917
	C138.666,20.631,138.074,19.094,136.605,19.094z M95.267,23.67c0,0.838,0.541,1.223,1.221,1.223c0.875,0,1.486-0.559,1.697-1.17
	c0.051-0.157,0.051-0.314,0.051-0.473v-1.168C96.716,22.064,95.267,22.378,95.267,23.67z M178.82,19.008
	c-1.326,0-1.887,1.205-1.975,2.078h3.735C180.602,20.299,180.251,19.008,178.82,19.008z"/>
<path fill="#fff" d="M190.41,71.127H9.588C4.301,71.127,0,66.832,0,61.553V9.588C0,4.301,4.301,0,9.588,0H190.41
	c5.287,0,9.59,4.301,9.59,9.588v51.965C200,66.832,195.697,71.127,190.41,71.127z M9.588,2.483c-3.918,0-7.104,3.188-7.104,7.105
	v51.965c0,3.91,3.187,7.093,7.104,7.093H190.41c3.916,0,7.105-3.183,7.105-7.093V9.588c0-3.917-3.189-7.105-7.105-7.105H9.588z"/>
</svg>
