<svg xmlns="http://www.w3.org/2000/svg" width="200" height="71.127" viewBox="0 0 200 71.127"><path fill="#fff" d="M27.267 18.588h3.74c.245 0 .445-.202.445-.436 0-.248-.2-.448-.445-.448h-3.74c-.238 0-.441.2-.441.448 0 .234.203.436.441.436zm1.869 32.774c-1.07 0-1.944.875-1.944 1.949 0 1.072.874 1.944 1.944 1.944 1.075 0 1.946-.873 1.946-1.944 0-1.074-.871-1.949-1.946-1.949zm-9.541-1.666h19.086v-28.228h-19.086v28.228zm61.196-9.27c-.904 0-1.723.298-2.461.898-.738.608-1.217 1.396-1.443 2.37-.113.455-.168.826-.168 1.123v2.75c0 1.201.361 2.218 1.102 3.045.734.82 1.693 1.234 2.869 1.234 1.379 0 2.463-.529 3.23-1.596.77-1.064 1.15-2.469 1.15-4.217 0-1.604-.355-2.932-1.082-3.971-.797-1.083-1.86-1.636-3.197-1.636zm66.934-.227c-1.472 0-2.593.651-3.357 1.964-.664 1.08-.988 2.396-.988 3.958 0 1.519.324 2.815.988 3.897.785 1.309 1.896 1.961 3.33 1.961 1.396 0 2.498-.662 3.287-2.004.684-1.096 1.024-2.41 1.024-3.92 0-1.511-.327-2.812-.979-3.894-.782-1.31-1.876-1.962-3.305-1.962zm-48.79.227c-.91 0-1.721.298-2.461.898-.734.608-1.219 1.396-1.447 2.37-.113.455-.166.826-.166 1.123v2.75c0 1.201.361 2.218 1.102 3.045.734.82 1.693 1.234 2.865 1.234 1.391 0 2.465-.529 3.234-1.596.772-1.064 1.16-2.469 1.16-4.217 0-1.604-.365-2.932-1.089-3.971-.798-1.083-1.864-1.636-3.198-1.636zm-37.916-5.906h-.064c-.23.973-.588 2.409-1.091 4.315l-1.903 5.98h6.149l-1.929-5.98c-.209-.615-.599-2.054-1.162-4.315zm114.533 5.499c-1.194 0-2.168.513-2.922 1.502-.606.791-.976 1.744-1.086 2.848h7.646c.019-1.083-.215-2.02-.713-2.817-.636-1.016-1.61-1.533-2.925-1.533zm-98.351-16.296c.053-.157.053-.314.053-.473v-1.168c-1.52-.018-2.969.296-2.969 1.588 0 .838.541 1.223 1.223 1.223.872.001 1.484-.558 1.693-1.17zm-20.022-5.345c-.228-.716-.419-1.52-.594-2.2h-.036c-.173.681-.366 1.501-.559 2.2l-.907 2.899h3.021l-.925-2.899zm121.762-.838c2.76 0 3.67 2.271 3.67 4.141 0 .402-.035.716-.07.908h-5.695c.053 1.536 1.24 2.2 2.621 2.2.996 0 1.695-.156 2.357-.384l.312 1.468c-.731.313-1.743.541-2.969.541-2.758 0-4.383-1.693-4.383-4.295.001-2.361 1.434-4.579 4.157-4.579zm-34.087.192l.104 1.275h.057c.381-.665 1.31-1.468 2.723-1.468 1.484 0 3.021.961 3.021 3.651v5.047h-2.148v-4.804c0-1.222-.452-2.147-1.623-2.147-.856 0-1.448.611-1.68 1.257-.067.175-.104.437-.104.681v5.013h-2.148v-5.973c0-.979-.035-1.799-.07-2.533l1.868.001zm-22.558-.192c2.759 0 3.668 2.271 3.668 4.141 0 .402-.034.716-.069.908h-5.693c.051 1.536 1.238 2.2 2.619 2.2.996 0 1.693-.156 2.356-.384l.314 1.468c-.734.313-1.746.541-2.97.541-2.76 0-4.385-1.693-4.385-4.295.003-2.361 1.436-4.579 4.16-4.579zm-8.804-3.702h2.146v12.399h-2.146v-12.399zm-17.037 5.221c-.838 0-1.711.263-2.287.63l-.42-1.398c.629-.384 1.729-.751 3.074-.751 2.725 0 3.512 1.73 3.512 3.598v3.057c0 .769.033 1.52.137 2.043h-1.938l-.156-.942h-.053c-.506.663-1.398 1.135-2.516 1.135-1.713 0-2.672-1.24-2.672-2.532 0-2.131 1.902-3.231 5.049-3.214v-.14c0-.559-.23-1.486-1.73-1.486zm-12.702-4.872c.734 0 1.189.507 1.205 1.17 0 .628-.471 1.153-1.223 1.153-.715 0-1.186-.524-1.186-1.153.001-.664.49-1.17 1.204-1.17zm1.065 3.545v8.505h-2.145v-8.505h2.145zm-29.544-3.266h2.741l3.825 11.771h-2.323l-1.064-3.336h-3.722l-1.014 3.336h-2.217l3.774-11.771zm-14.305 39.034c0 2.074-1.691 3.755-3.764 3.755h-16.131c-2.075 0-3.766-1.682-3.766-3.755v-35.846c0-2.074 1.691-3.76 3.766-3.76h16.131c2.073 0 3.764 1.686 3.764 3.76v35.846zm25.929.86l-2.139-6.723h-7.443l-2.042 6.723h-3.801l7.367-22.899h4.557l7.41 22.899h-3.909zm.834-28.122h-2.115l-3.161-8.505h2.324l1.377 4.314c.246.751.42 1.432.578 2.13h.053c.156-.698.35-1.364.576-2.13l1.363-4.314h2.252l-3.247 8.505zm4.422-2.34c0-2.131 1.904-3.231 5.047-3.214v-.14c0-.558-.227-1.485-1.729-1.485-.84 0-1.711.263-2.287.63l-.42-1.398c.629-.384 1.729-.751 3.074-.751 2.725 0 3.51 1.73 3.51 3.598v3.057c0 .769.035 1.52.141 2.043h-1.94l-.156-.942h-.053c-.506.663-1.398 1.135-2.516 1.135-1.71-.001-2.671-1.241-2.671-2.533zm14.367 28.667c-1.363 1.443-3.064 2.168-5.088 2.168-2.191 0-3.762-.779-4.715-2.348v8.67h-3.668v-17.781c0-1.767-.047-3.572-.141-5.428h3.229l.203 2.616h.064c1.229-1.964 3.084-2.948 5.578-2.948 1.947 0 3.568.764 4.879 2.309 1.297 1.537 1.951 3.568 1.951 6.08.001 2.819-.761 5.028-2.292 6.662zm3.816-26.327h-2.145v-12.4h2.145v12.4zm14.325 26.327c-1.367 1.443-3.061 2.168-5.09 2.168-2.186 0-3.758-.779-4.711-2.348v8.67h-3.67v-17.781c0-1.767-.049-3.572-.137-5.428h3.219l.213 2.616h.062c1.232-1.964 3.084-2.948 5.576-2.948 1.946 0 3.571.764 4.875 2.309 1.308 1.537 1.955 3.568 1.955 6.08.001 2.819-.761 5.028-2.292 6.662zm2.52-26.135c-1.101 0-2.078-.418-2.688-1.467h-.037l-.104 1.274h-1.834c.033-.576.07-1.519.07-2.393v-10.006h2.146v5.064h.035c.522-.821 1.448-1.363 2.725-1.363 2.078 0 3.564 1.73 3.545 4.314.001 3.058-1.936 4.577-3.858 4.577zm18.47 26.264c-1.498 1.338-3.576 2.003-6.24 2.003-2.469 0-4.443-.479-5.934-1.425l.852-3.057c1.607.946 3.371 1.428 5.293 1.428 1.389 0 2.461-.315 3.232-.935.766-.621 1.149-1.452 1.149-2.507 0-.917-.315-1.699-.946-2.336-.64-.635-1.687-1.219-3.158-1.766-4.006-1.492-6.014-3.679-6.014-6.555 0-1.88.698-3.424 2.118-4.625 1.414-1.197 3.291-1.799 5.627-1.799 2.082 0 3.813.365 5.199 1.084l-.927 2.991c-1.29-.7-2.758-1.055-4.395-1.055-1.295 0-2.309.329-3.037.947-.608.575-.918 1.268-.918 2.08 0 .898.354 1.65 1.055 2.248.613.541 1.724 1.127 3.324 1.76 1.979.787 3.422 1.721 4.355 2.789.926 1.064 1.391 2.387 1.391 3.971.004 1.953-.677 3.543-2.026 4.759zm12.935-12.097h-4.049v8.026c0 2.036.719 3.047 2.146 3.047.656 0 1.193-.048 1.629-.159l.105 2.779c-.729.271-1.678.409-2.855.409-1.442 0-2.582-.437-3.395-1.325-.824-.878-1.23-2.365-1.23-4.449v-8.328h-2.41v-2.75h2.41v-3.022l3.601-1.087v4.11h4.049v2.749zm-2.069-14.167c-2.392 0-4.261-1.642-4.261-4.383 0-2.795 1.834-4.507 4.402-4.507 2.528 0 4.225 1.783 4.225 4.367 0 3.127-2.198 4.523-4.366 4.523zm17.125 25.796c-1.521 1.672-3.537 2.51-6.045 2.51-2.431 0-4.367-.803-5.804-2.412-1.438-1.604-2.151-3.641-2.151-6.083 0-2.558.739-4.655 2.223-6.285 1.486-1.636 3.479-2.44 5.994-2.44 2.434 0 4.379.795 5.852 2.412 1.4 1.555 2.102 3.576 2.102 6.042-.002 2.545-.723 4.62-2.171 6.256zm3.793-34.494h1.203v-1.59l2.114-.594v2.184h2.041v1.606h-2.041v3.756c0 1.048.279 1.572 1.101 1.572.385 0 .596-.019.838-.087l.035 1.624c-.312.122-.89.228-1.556.228-.803 0-1.448-.262-1.853-.699-.471-.489-.682-1.275-.682-2.393v-4h-1.203v-1.607h.003zm9.419 23.342c-.361-.065-.752-.093-1.156-.093-1.293 0-2.285.486-2.988 1.457-.615.863-.92 1.936-.92 3.259v8.663h-3.668v-11.319c0-1.892-.035-3.625-.1-5.194h3.192l.138 3.162h.102c.383-1.084.99-1.959 1.834-2.611.816-.595 1.701-.881 2.652-.881.34 0 .646.019.914.062v3.495zm.555-19.936v5.1h-2.146v-12.4h2.146v5.047h.035c.262-.401.629-.734 1.065-.96.437-.246.943-.386 1.484-.386 1.448 0 2.971.961 2.971 3.686v5.013h-2.149v-4.785c0-1.223-.453-2.166-1.644-2.166-.838 0-1.43.559-1.676 1.205-.066.192-.086.419-.086.646zm15.145 25.856h-11.011c.045 1.629.574 2.871 1.599 3.729.928.772 2.127 1.158 3.602 1.158 1.635 0 3.113-.259 4.449-.788l.58 2.552c-1.56.685-3.408 1.017-5.543 1.017-2.556 0-4.564-.749-6.025-2.254-1.461-1.507-2.197-3.528-2.197-6.062 0-2.496.686-4.564 2.039-6.226 1.434-1.765 3.357-2.646 5.779-2.646 2.385 0 4.182.881 5.402 2.646.971 1.409 1.461 3.144 1.461 5.205-.001.653-.049 1.209-.135 1.669zm-75.847-27.777c-.873 0-1.676.629-1.901 1.571-.035.158-.07.35-.07.56v1.38c0 .174.02.35.055.507.227.872.977 1.501 1.902 1.501 1.346 0 2.164-1.065 2.164-2.793-.001-1.503-.715-2.726-2.15-2.726zm15.465-.209c-1.325 0-1.887 1.205-1.973 2.078h3.737c.018-.787-.332-2.078-1.764-2.078zm14.432.086c-1.519 0-2.129 1.485-2.129 2.899 0 1.643.817 2.883 2.112 2.883 1.222 0 2.076-1.188 2.076-2.917.002-1.328-.59-2.865-2.059-2.865zm-41.338 4.576c0 .838.541 1.223 1.221 1.223.875 0 1.486-.559 1.697-1.17.051-.157.051-.314.051-.473v-1.168c-1.52-.018-2.969.296-2.969 1.588zm83.553-4.662c-1.326 0-1.887 1.205-1.975 2.078h3.735c.022-.787-.329-2.078-1.76-2.078zM190.41 71.127h-180.822c-5.287 0-9.588-4.295-9.588-9.574v-51.965c0-5.287 4.301-9.588 9.588-9.588h180.822c5.287 0 9.59 4.301 9.59 9.588v51.965c0 5.279-4.303 9.574-9.59 9.574zm-180.822-68.644c-3.918 0-7.104 3.188-7.104 7.105v51.965c0 3.91 3.187 7.093 7.104 7.093h180.822c3.916 0 7.105-3.183 7.105-7.093v-51.965c0-3.917-3.189-7.105-7.105-7.105h-180.822z"/></svg>