<svg xmlns="http://www.w3.org/2000/svg" width="276.192" height="95.415" viewBox="0 0 276.192 95.415"><g fill="#fff"><path d="M264.922 95.415h-253.651c-6.215 0-11.271-5.049-11.271-11.252v-72.892c0-6.215 5.056-11.271 11.271-11.271h253.651c6.215 0 11.271 5.056 11.271 11.271v72.892c-.001 6.203-5.056 11.252-11.271 11.252m-253.651-91.156c-3.868 0-7.012 3.145-7.012 7.013v72.892c0 3.856 3.145 6.997 7.012 6.997h253.651c3.867 0 7.012-3.141 7.012-6.997v-72.893c0-3.868-3.145-7.013-7.012-7.013h-253.651zM49.955 17.309h-22.586c-2.908 0-5.274 2.366-5.274 5.274v50.183c0 2.905 2.366 5.271 5.274 5.271h22.586c2.908 0 5.273-2.366 5.273-5.271v-50.183c.001-2.908-2.365-5.274-5.273-5.274m-13.91 5.337h5.233c.343 0 .62.277.62.62 0 .339-.277.615-.62.615h-5.233c-.343 0-.624-.276-.624-.615.001-.343.281-.62.624-.62m2.61 53.054c-1.757 0-3.189-1.432-3.189-3.195 0-1.765 1.432-3.196 3.189-3.196 1.768 0 3.203 1.432 3.203 3.196 0 1.764-1.436 3.195-3.203 3.195m13.968-7.669h-27.922v-40.718h27.922v40.718zM97.146 74.076h-5.488l-2.997-9.433h-10.436l-2.871 9.433h-5.333l10.341-32.122h6.392l10.392 32.122m-9.4-13.388l-2.705-8.396c-.292-.855-.834-2.875-1.631-6.048h-.089c-.325 1.368-.819 3.376-1.528 6.048l-2.672 8.396h8.625zM122.4 62.208c0 3.952-1.066 7.048-3.214 9.344-1.908 2.03-4.296 3.042-7.138 3.042-3.071 0-5.277-1.09-6.613-3.293v12.16h-5.137v-24.943c0-2.473-.074-5.009-.199-7.606h4.524l.284 3.665h.093c1.724-2.753 4.322-4.134 7.82-4.134 2.738 0 5.012 1.073 6.846 3.236 1.819 2.159 2.734 5.005 2.734 8.529m-5.244.184c0-2.254-.502-4.118-1.521-5.567-1.122-1.521-2.606-2.296-4.488-2.296-1.266 0-2.417.417-3.447 1.258-1.037.853-1.712 1.957-2.03 3.325-.158.639-.236 1.155-.236 1.572v3.856c0 1.69.513 3.115 1.546 4.273 1.033 1.148 2.373 1.728 4.022 1.728 1.938 0 3.458-.738 4.532-2.236 1.08-1.492 1.622-3.462 1.622-5.913zM147.851 62.208c0 3.952-1.066 7.048-3.215 9.344-1.919 2.03-4.292 3.042-7.141 3.042-3.067 0-5.267-1.09-6.609-3.293v12.16h-5.149v-24.943c0-2.473-.062-5.009-.192-7.606h4.521l.299 3.665h.081c1.731-2.753 4.329-4.134 7.824-4.134 2.734 0 5.012 1.073 6.839 3.236 1.829 2.159 2.742 5.005 2.742 8.529m-5.238.184c0-2.254-.51-4.118-1.524-5.567-1.114-1.521-2.612-2.296-4.491-2.296-1.27 0-2.413.417-3.45 1.258-1.03.853-1.709 1.957-2.027 3.325-.154.639-.234 1.155-.234 1.572v3.856c0 1.69.508 3.115 1.549 4.273 1.025 1.148 2.373 1.728 4.02 1.728 1.948 0 3.454-.738 4.536-2.236 1.083-1.492 1.621-3.462 1.621-5.913zM176.928 65.064c0 2.731-.955 4.964-2.849 6.672-2.1 1.875-5.016 2.809-8.747 2.809-3.465 0-6.237-.667-8.329-2l1.191-4.288c2.26 1.325 4.739 2 7.434 2 1.945 0 3.454-.439 4.527-1.307 1.078-.871 1.617-2.041 1.617-3.517 0-1.284-.443-2.385-1.332-3.273-.89-.894-2.362-1.717-4.433-2.48-5.617-2.092-8.434-5.156-8.434-9.193 0-2.643.989-4.805 2.979-6.483 1.984-1.683 4.616-2.528 7.886-2.528 2.927 0 5.352.513 7.3 1.523l-1.299 4.196c-1.815-.985-3.871-1.479-6.167-1.479-1.815 0-3.24.458-4.262 1.328-.857.801-1.284 1.775-1.284 2.92 0 1.258.49 2.31 1.476 3.145.859.76 2.413 1.587 4.665 2.468 2.775 1.108 4.801 2.422 6.111 3.916 1.297 1.497 1.95 3.35 1.95 5.571M192.226 54.764h-5.684v11.26c0 2.86 1.007 4.278 3.016 4.278.914 0 1.675-.07 2.284-.226l.144 3.897c-1.019.388-2.351.575-4 .575-2.026 0-3.628-.609-4.769-1.859-1.148-1.237-1.724-3.318-1.724-6.241v-11.684h-3.377v-3.853h3.377v-4.241l5.049-1.527v5.769h5.684v3.852"/><path d="M216.392 62.304c0 3.569-1.016 6.478-3.042 8.772-2.137 2.348-4.967 3.521-8.484 3.521-3.41 0-6.122-1.122-8.141-3.38-2.019-2.256-3.017-5.108-3.017-8.54 0-3.583 1.034-6.525 3.115-8.81 2.086-2.295 4.887-3.425 8.411-3.425 3.41 0 6.134 1.118 8.201 3.381 1.971 2.181 2.957 5.019 2.957 8.481m-5.337.118c0-2.122-.462-3.945-1.381-5.462-1.096-1.842-2.628-2.753-4.628-2.753-2.062 0-3.639.911-4.713 2.753-.93 1.517-1.392 3.365-1.392 5.55 0 2.134.462 3.949 1.392 5.47 1.107 1.838 2.661 2.757 4.669 2.757 1.964 0 3.506-.934 4.617-2.812.959-1.539 1.436-3.385 1.436-5.503zM231.873 55.436c-.506-.092-1.049-.129-1.616-.129-1.812 0-3.208.683-4.2 2.045-.856 1.21-1.28 2.712-1.28 4.572v12.152h-5.148v-15.88c0-2.653-.049-5.085-.141-7.285h4.48l.191 4.433h.137c.543-1.521 1.399-2.75 2.579-3.661 1.141-.838 2.385-1.236 3.717-1.236.477 0 .908.025 1.281.085v4.904"/><path d="M254.09 61.399c0 .916-.066 1.694-.188 2.337h-15.444c.066 2.287.808 4.029 2.244 5.232 1.298 1.085 2.978 1.628 5.049 1.628 2.291 0 4.369-.365 6.244-1.107l.812 3.579c-2.188.964-4.783 1.426-7.776 1.426-3.584 0-6.403-1.045-8.455-3.163-2.044-2.111-3.077-4.945-3.077-8.503 0-3.499.959-6.4 2.859-8.729 2.016-2.479 4.714-3.717 8.108-3.717 3.343 0 5.864 1.237 7.577 3.717 1.36 1.971 2.047 4.411 2.047 7.3m-4.909-1.342c.026-1.524-.299-2.835-.995-3.953-.901-1.421-2.264-2.147-4.104-2.147-1.679 0-3.045.716-4.097 2.106-.863 1.108-1.369 2.447-1.527 3.994h10.723zM84.303 17.201v13.722l1.517.045-.163 5.931h-1.845l-.162-3.971h-9.895l-.166 3.971h-1.846l-.162-5.883 1.24-.093c.627-1.118 1.236-2.429 1.613-3.664.461-1.702.675-3.709.675-6.023v-4.034h9.194m-6.886 4.782c0 2.147-.233 4.108-.768 5.787-.325 1.074-.793 2.219-1.284 3.078h6.417v-11.525h-4.366v2.66zM94.127 33.189c-3.314 0-5.462-2.477-5.462-5.835 0-3.499 2.196-5.997 5.65-5.997 3.266 0 5.455 2.357 5.455 5.812 0 3.544-2.263 6.02-5.643 6.02m.093-9.987c-1.82 0-2.986 1.705-2.986 4.086 0 2.328 1.188 4.034 2.963 4.034 1.771 0 2.963-1.82 2.963-4.086.001-2.306-1.169-4.034-2.94-4.034zM111.182 23.808c-.631-.303-1.381-.468-2.196-.468-2.214 0-3.591 1.656-3.591 3.919 0 2.405 1.517 3.896 3.591 3.896.771 0 1.542-.162 2.288-.465l.351 1.89c-.816.398-1.867.583-3.126.583-3.476 0-5.672-2.288-5.672-5.786 0-3.499 2.402-6.02 6.115-6.02 1.048 0 1.96.185 2.731.531l-.491 1.92M123.293 21.59v2.056h-3.454v9.289h-2.477v-9.289h-3.427v-2.056h9.358M136.056 21.59l-2.871 7.864c-1.355 3.713-2.684 6.115-3.85 7.188-.886.795-1.82 1.259-2.775 1.426l-.609-2.122c1.307-.354 2.59-1.403 3.292-2.875.114-.232.185-.395.185-.514 0-.118-.048-.28-.141-.535l-4.107-10.433h2.775l2.148 6.325c.21.584.42 1.329.675 2.241h.052c.162-.492.324-1.26.63-2.267l1.912-6.3h2.684M149.027 21.59v11.345h-2.52v-9.289h-4.643v9.289h-2.52v-11.345h9.683M156.117 21.59v4.462h4.738v-4.462h2.521v11.345h-2.521v-4.906h-4.738v4.906h-2.52v-11.345h2.52"/><path d="M172.591 33.189c-3.313 0-5.462-2.477-5.462-5.835 0-3.499 2.193-5.997 5.647-5.997 3.27 0 5.461 2.357 5.461 5.812 0 3.544-2.264 6.02-5.646 6.02m.093-9.987c-1.819 0-2.989 1.705-2.989 4.086 0 2.328 1.192 4.034 2.967 4.034 1.776 0 2.96-1.82 2.96-4.086-.001-2.306-1.163-4.034-2.938-4.034zM188.9 21.683c.907-.141 2.429-.26 3.875-.26 1.845 0 5.107.237 5.107 2.92 0 1.377-1.092 2.17-2.262 2.425l.021.073c1.639.281 2.779 1.188 2.779 2.75 0 3.204-3.968 3.477-6.183 3.477-1.239 0-2.542-.066-3.339-.133v-11.252m2.431 4.527h1.284c1.583 0 2.867-.376 2.867-1.517 0-1.026-.838-1.494-2.66-1.494-.536 0-.816.025-1.491.092v2.919zm0 5.042c.63.066.955.092 1.513.092 1.402 0 3.015-.307 3.015-1.775 0-1.303-1.258-1.727-3.199-1.727h-1.328v3.41z"/></g></svg>