<?xml version="1.0" encoding="utf-8"?>
<!-- Generator: Adobe Illustrator 16.0.0, SVG Export Plug-In . SVG Version: 6.00 Build 0)  -->
<!DOCTYPE svg PUBLIC "-//W3C//DTD SVG 1.1//EN" "http://www.w3.org/Graphics/SVG/1.1/DTD/svg11.dtd">
<svg version="1.1" id="Layer_1" xmlns="http://www.w3.org/2000/svg" xmlns:xlink="http://www.w3.org/1999/xlink" x="0px" y="0px"
	 width="200px" height="71.127px" viewBox="0 0 200 71.127" enable-background="new 0 0 200 71.127" xml:space="preserve">
<g>
	<path fill="#58595B" d="M23.229,101.556h3.013c0.197,0,0.358-0.162,0.358-0.352c0-0.199-0.161-0.36-0.358-0.36h-3.013
		c-0.191,0-0.355,0.161-0.355,0.36C22.874,101.394,23.038,101.556,23.229,101.556z M24.735,127.959c-0.862,0-1.565,0.705-1.565,1.57
		c0,0.863,0.703,1.566,1.565,1.566c0.866,0,1.567-0.703,1.567-1.566C26.302,128.664,25.601,127.959,24.735,127.959z M17.048,126.616
		h15.376v-22.74H17.048V126.616z M66.347,119.148c-0.729,0-1.387,0.24-1.981,0.724c-0.595,0.49-0.98,1.124-1.164,1.909
		c-0.09,0.367-0.135,0.666-0.135,0.904v2.215c0,0.969,0.291,1.787,0.888,2.453c0.592,0.66,1.364,0.995,2.312,0.995
		c1.11,0,1.983-0.426,2.603-1.286c0.62-0.857,0.928-1.988,0.928-3.397c0-1.292-0.288-2.361-0.873-3.198
		C68.282,119.595,67.425,119.148,66.347,119.148z M120.27,118.965c-1.183,0-2.087,0.525-2.704,1.582
		c-0.535,0.87-0.797,1.932-0.797,3.188c0,1.224,0.262,2.268,0.797,3.14c0.633,1.055,1.527,1.58,2.683,1.58
		c1.124,0,2.013-0.532,2.647-1.613c0.552-0.883,0.826-1.941,0.826-3.158s-0.264-2.267-0.79-3.137
		C122.303,119.49,121.421,118.965,120.27,118.965z M80.966,119.148c-0.732,0-1.387,0.24-1.982,0.724
		c-0.593,0.49-0.982,1.124-1.166,1.909c-0.091,0.367-0.134,0.666-0.134,0.904v2.215c0,0.969,0.292,1.787,0.888,2.453
		c0.592,0.66,1.364,0.995,2.309,0.995c1.119,0,1.984-0.426,2.605-1.286c0.622-0.857,0.934-1.988,0.934-3.397
		c0-1.292-0.294-2.361-0.876-3.198C82.9,119.595,82.042,119.148,80.966,119.148z M50.419,114.39h-0.052
		c-0.186,0.785-0.474,1.941-0.879,3.477l-1.533,4.818h4.953l-1.554-4.818C51.187,117.371,50.874,116.212,50.419,114.39z
		 M142.69,118.82c-0.965,0-1.749,0.412-2.354,1.21c-0.492,0.637-0.787,1.404-0.876,2.294h6.158c0.016-0.873-0.172-1.627-0.572-2.27
		C144.533,119.237,143.747,118.82,142.69,118.82z M63.457,105.692c0.041-0.127,0.041-0.254,0.041-0.381v-0.941
		c-1.224-0.014-2.391,0.238-2.391,1.279c0,0.676,0.436,0.986,0.984,0.986C62.794,106.636,63.287,106.185,63.457,105.692z
		 M47.326,101.387c-0.184-0.577-0.338-1.224-0.479-1.772h-0.029c-0.14,0.549-0.295,1.209-0.45,1.772l-0.73,2.336h2.434
		L47.326,101.387z M154.658,87.581H8.987c-3.707,0-6.724,3.016-6.724,6.725v41.862c0,3.703,3.017,6.715,6.724,6.715h145.671
		c3.708,0,6.725-3.012,6.725-6.715V94.306C161.382,90.597,158.366,87.581,154.658,87.581z M145.419,100.712
		c2.223,0,2.955,1.828,2.955,3.334c0,0.324-0.028,0.578-0.057,0.732h-4.587c0.042,1.237,0.999,1.771,2.11,1.771
		c0.802,0,1.365-0.125,1.899-0.309l0.253,1.182c-0.591,0.253-1.406,0.436-2.392,0.436c-2.223,0-3.531-1.363-3.531-3.46
		C142.071,102.498,143.224,100.712,145.419,100.712z M117.958,100.866l0.084,1.027h0.043c0.309-0.535,1.055-1.182,2.194-1.182
		c1.196,0,2.435,0.773,2.435,2.939v4.066h-1.73v-3.869c0-0.984-0.366-1.73-1.309-1.73c-0.689,0-1.168,0.492-1.352,1.014
		c-0.057,0.141-0.084,0.352-0.084,0.549v4.037h-1.73v-4.811c0-0.789-0.028-1.449-0.057-2.041H117.958z M99.786,100.712
		c2.223,0,2.955,1.828,2.955,3.334c0,0.324-0.028,0.578-0.057,0.732h-4.587c0.042,1.237,0.999,1.771,2.11,1.771
		c0.802,0,1.364-0.125,1.899-0.309l0.253,1.182c-0.591,0.253-1.406,0.436-2.392,0.436c-2.223,0-3.531-1.363-3.531-3.46
		C96.437,102.498,97.59,100.712,99.786,100.712z M92.693,97.729h1.729v9.988h-1.729V97.729z M78.968,101.935
		c-0.676,0-1.379,0.213-1.843,0.508l-0.338-1.126c0.506-0.31,1.393-0.604,2.476-0.604c2.195,0,2.829,1.393,2.829,2.897v2.463
		c0,0.619,0.027,1.224,0.111,1.646h-1.562l-0.126-0.759h-0.042c-0.408,0.534-1.126,0.915-2.026,0.915c-1.38,0-2.153-1-2.153-2.041
		c0-1.717,1.533-2.604,4.066-2.589v-0.112C80.361,102.682,80.177,101.935,78.968,101.935z M68.736,98.01
		c0.591,0,0.957,0.409,0.971,0.942c0,0.507-0.38,0.93-0.985,0.93c-0.577,0-0.956-0.423-0.956-0.93
		C67.765,98.419,68.159,98.01,68.736,98.01z M69.593,100.866v6.852h-1.729v-6.852H69.593z M45.792,98.235H48l3.081,9.482H49.21
		l-0.857-2.688h-2.998l-0.816,2.688h-1.787L45.792,98.235z M34.267,129.681c0,1.671-1.362,3.025-3.032,3.025H18.24
		c-1.672,0-3.034-1.354-3.034-3.025v-28.877c0-1.671,1.362-3.029,3.034-3.029h12.995c1.67,0,3.032,1.358,3.032,3.029V129.681z
		 M55.156,130.374l-1.723-5.415h-5.996l-1.645,5.415H42.73l5.935-18.448h3.672l5.97,18.448H55.156z M55.828,107.718h-1.703
		l-2.547-6.852h1.872l1.11,3.476c0.197,0.604,0.338,1.153,0.465,1.717h0.043c0.126-0.563,0.281-1.099,0.464-1.717l1.098-3.476h1.815
		L55.828,107.718z M59.39,105.833c0-1.717,1.533-2.604,4.066-2.589v-0.112c0-0.45-0.184-1.197-1.394-1.197
		c-0.676,0-1.378,0.213-1.843,0.508l-0.338-1.126c0.506-0.31,1.393-0.604,2.477-0.604c2.194,0,2.828,1.393,2.828,2.897v2.463
		c0,0.619,0.027,1.224,0.112,1.646h-1.562l-0.126-0.759h-0.042c-0.408,0.534-1.126,0.915-2.026,0.915
		C60.164,107.874,59.39,106.874,59.39,105.833z M70.964,128.928c-1.099,1.163-2.469,1.747-4.1,1.747
		c-1.766,0-3.029-0.628-3.798-1.892v6.986h-2.954v-14.327c0-1.423-0.038-2.878-0.113-4.372H62.6l0.163,2.107h0.052
		c0.99-1.582,2.484-2.375,4.494-2.375c1.569,0,2.875,0.615,3.931,1.859c1.046,1.238,1.572,2.875,1.572,4.898
		C72.812,125.83,72.198,127.611,70.964,128.928z M74.041,107.718h-1.729v-9.988h1.729V107.718z M85.58,128.928
		c-1.102,1.163-2.466,1.747-4.101,1.747c-1.761,0-3.026-0.628-3.795-1.892v6.986h-2.957v-14.327c0-1.423-0.038-2.878-0.109-4.372
		h2.594l0.171,2.107h0.051c0.992-1.582,2.483-2.375,4.49-2.375c1.57,0,2.88,0.615,3.929,1.859c1.052,1.238,1.575,2.875,1.575,4.898
		C87.427,125.83,86.813,127.611,85.58,128.928z M87.61,107.874c-0.887,0-1.675-0.338-2.167-1.183h-0.028l-0.084,1.026h-1.478
		c0.028-0.464,0.057-1.223,0.057-1.928v-8.061h1.729v4.079h0.028c0.422-0.661,1.168-1.097,2.195-1.097
		c1.675,0,2.87,1.393,2.856,3.475C90.719,106.649,89.158,107.874,87.61,107.874z M102.49,129.031
		c-1.208,1.078-2.881,1.613-5.027,1.613c-1.989,0-3.58-0.385-4.781-1.147l0.687-2.463c1.295,0.763,2.717,1.149,4.265,1.149
		c1.118,0,1.982-0.254,2.604-0.752c0.617-0.5,0.928-1.17,0.928-2.02c0-0.738-0.256-1.368-0.764-1.882
		c-0.516-0.511-1.357-0.981-2.545-1.423c-3.227-1.201-4.843-2.963-4.843-5.279c0-1.515,0.563-2.759,1.706-3.726
		c1.141-0.965,2.65-1.449,4.532-1.449c1.678,0,3.074,0.294,4.189,0.874l-0.746,2.409c-1.04-0.563-2.222-0.85-3.54-0.85
		c-1.042,0-1.859,0.265-2.447,0.764c-0.491,0.463-0.738,1.02-0.738,1.675c0,0.725,0.283,1.329,0.848,1.811
		c0.494,0.436,1.389,0.908,2.68,1.418c1.593,0.634,2.757,1.387,3.508,2.247c0.746,0.857,1.122,1.923,1.122,3.198
		C104.125,126.77,103.577,128.051,102.49,129.031z M112.911,119.285h-3.263v6.467c0,1.641,0.579,2.455,1.729,2.455
		c0.529,0,0.963-0.039,1.312-0.129l0.084,2.239c-0.585,0.219-1.35,0.329-2.299,0.329c-1.162,0-2.081-0.351-2.735-1.067
		c-0.663-0.708-0.99-1.905-0.99-3.584v-6.71h-1.941v-2.215h1.941v-2.435l2.898-0.876v3.311h3.263V119.285z M111.244,107.874
		c-1.928,0-3.434-1.324-3.434-3.532c0-2.251,1.478-3.63,3.546-3.63c2.04,0,3.405,1.436,3.405,3.518
		C114.761,106.748,112.988,107.874,111.244,107.874z M125.039,128.654c-1.227,1.347-2.851,2.021-4.871,2.021
		c-1.956,0-3.517-0.646-4.674-1.942c-1.157-1.293-1.734-2.933-1.734-4.9c0-2.061,0.596-3.75,1.791-5.062
		c1.197-1.318,2.803-1.967,4.828-1.967c1.96,0,3.527,0.642,4.714,1.943c1.128,1.252,1.694,2.881,1.694,4.868
		C126.787,125.664,126.207,127.336,125.039,128.654z M128.093,100.866h0.971v-1.281l1.703-0.479v1.76h1.646v1.294h-1.646v3.025
		c0,0.845,0.225,1.267,0.886,1.267c0.31,0,0.479-0.015,0.676-0.07l0.028,1.309c-0.254,0.098-0.718,0.184-1.252,0.184
		c-0.647,0-1.169-0.212-1.492-0.563c-0.38-0.394-0.549-1.027-0.549-1.928v-3.223h-0.971V100.866z M135.681,119.67
		c-0.291-0.053-0.604-0.075-0.931-0.075c-1.04,0-1.841,0.393-2.408,1.175c-0.494,0.695-0.739,1.559-0.739,2.625v6.979h-2.956v-9.119
		c0-1.524-0.026-2.921-0.079-4.185h2.572l0.11,2.547h0.081c0.309-0.873,0.799-1.578,1.478-2.104c0.657-0.479,1.372-0.71,2.138-0.71
		c0.271,0,0.52,0.015,0.734,0.05V119.67z M136.129,103.609v4.108H134.4v-9.988h1.729v4.065h0.028
		c0.211-0.323,0.507-0.591,0.858-0.773c0.352-0.198,0.76-0.31,1.196-0.31c1.168,0,2.393,0.773,2.393,2.969v4.037h-1.731v-3.854
		c0-0.985-0.366-1.745-1.322-1.745c-0.676,0-1.154,0.451-1.351,0.971C136.144,103.244,136.129,103.427,136.129,103.609z
		 M148.331,124.439h-8.87c0.035,1.312,0.464,2.312,1.288,3.005c0.746,0.622,1.712,0.933,2.899,0.933
		c1.316,0,2.509-0.209,3.586-0.635l0.466,2.056c-1.255,0.552-2.745,0.819-4.465,0.819c-2.058,0-3.678-0.604-4.854-1.816
		c-1.176-1.213-1.77-2.842-1.77-4.884c0-2.011,0.551-3.677,1.643-5.015c1.155-1.422,2.706-2.132,4.655-2.132
		c1.922,0,3.37,0.71,4.353,2.132c0.782,1.135,1.177,2.532,1.177,4.193C148.438,123.621,148.4,124.068,148.331,124.439z
		 M87.23,102.062c-0.703,0-1.351,0.508-1.533,1.267c-0.029,0.127-0.058,0.281-0.058,0.45v1.111c0,0.141,0.015,0.282,0.043,0.409
		c0.183,0.702,0.788,1.21,1.533,1.21c1.084,0,1.745-0.859,1.745-2.251C88.96,103.048,88.383,102.062,87.23,102.062z M99.687,101.894
		c-1.069,0-1.52,0.971-1.59,1.674h3.011C101.122,102.935,100.84,101.894,99.687,101.894z M111.314,101.964
		c-1.225,0-1.717,1.195-1.717,2.335c0,1.323,0.661,2.322,1.703,2.322c0.984,0,1.674-0.957,1.674-2.35
		C112.974,103.202,112.496,101.964,111.314,101.964z M78.011,105.649c0,0.676,0.437,0.986,0.984,0.986
		c0.704,0,1.196-0.451,1.365-0.943c0.042-0.127,0.042-0.254,0.042-0.381v-0.941C79.179,104.356,78.011,104.608,78.011,105.649z
		 M145.321,101.894c-1.069,0-1.52,0.971-1.59,1.674h3.011C146.756,102.935,146.474,101.894,145.321,101.894z"/>
</g>
<g>
	<g>
		<g>
			<path fill="#FFFFFF" d="M27.267,18.588h3.74c0.245,0,0.445-0.202,0.445-0.436c0-0.248-0.2-0.448-0.445-0.448h-3.74
				c-0.238,0-0.441,0.2-0.441,0.448C26.826,18.386,27.029,18.588,27.267,18.588z M29.136,51.363c-1.07,0-1.944,0.875-1.944,1.949
				c0,1.072,0.874,1.944,1.944,1.944c1.075,0,1.946-0.873,1.946-1.944C31.082,52.238,30.211,51.363,29.136,51.363z M19.595,49.696
				h19.086V21.468H19.595V49.696z M80.791,40.426c-0.904,0-1.723,0.298-2.461,0.898c-0.738,0.608-1.217,1.396-1.443,2.37
				c-0.113,0.456-0.168,0.827-0.168,1.123v2.75c0,1.202,0.361,2.218,1.102,3.045c0.734,0.82,1.693,1.235,2.869,1.235
				c1.379,0,2.463-0.529,3.23-1.596c0.77-1.064,1.15-2.469,1.15-4.217c0-1.604-0.355-2.931-1.082-3.97
				C83.191,40.98,82.128,40.426,80.791,40.426z M147.724,40.199c-1.471,0-2.592,0.652-3.357,1.964
				c-0.664,1.08-0.988,2.397-0.988,3.958c0,1.519,0.324,2.815,0.988,3.897c0.785,1.309,1.896,1.961,3.33,1.961
				c1.396,0,2.498-0.661,3.287-2.003c0.684-1.096,1.025-2.41,1.025-3.92c0-1.511-0.328-2.813-0.98-3.894
				C150.248,40.851,149.154,40.199,147.724,40.199z M98.935,40.426c-0.91,0-1.721,0.298-2.461,0.898
				c-0.734,0.608-1.219,1.396-1.447,2.37c-0.113,0.456-0.166,0.827-0.166,1.123v2.75c0,1.202,0.361,2.218,1.102,3.045
				c0.734,0.82,1.693,1.235,2.865,1.235c1.391,0,2.465-0.529,3.234-1.596c0.773-1.064,1.16-2.469,1.16-4.217
				c0-1.604-0.365-2.931-1.088-3.97C101.335,40.98,100.269,40.426,98.935,40.426z M61.019,34.52h-0.064
				c-0.23,0.973-0.588,2.409-1.091,4.315l-1.903,5.981h6.149l-1.929-5.981C61.972,38.22,61.582,36.781,61.019,34.52z
				 M175.552,40.019c-1.195,0-2.168,0.512-2.922,1.502c-0.607,0.791-0.975,1.743-1.086,2.847h7.646
				c0.018-1.083-0.215-2.02-0.713-2.817C177.841,40.536,176.867,40.019,175.552,40.019z M77.201,23.723
				c0.053-0.157,0.053-0.314,0.053-0.473v-1.168c-1.52-0.018-2.969,0.296-2.969,1.588c0,0.838,0.541,1.223,1.223,1.223
				C76.38,24.894,76.992,24.335,77.201,23.723z M57.179,18.378c-0.228-0.716-0.419-1.52-0.594-2.2h-0.036
				c-0.173,0.681-0.366,1.501-0.559,2.2l-0.907,2.899h3.021L57.179,18.378z M178.941,17.54c2.76,0,3.67,2.271,3.67,4.141
				c0,0.402-0.035,0.716-0.07,0.908h-5.695c0.053,1.536,1.24,2.2,2.621,2.2c0.996,0,1.695-0.156,2.357-0.384l0.312,1.468
				c-0.732,0.313-1.744,0.541-2.969,0.541c-2.758,0-4.383-1.693-4.383-4.295C174.785,19.758,176.218,17.54,178.941,17.54z
				 M144.853,17.732l0.104,1.275h0.057c0.381-0.665,1.309-1.468,2.723-1.468c1.484,0,3.021,0.961,3.021,3.651v5.047h-2.148v-4.804
				c0-1.222-0.453-2.147-1.623-2.147c-0.857,0-1.449,0.611-1.68,1.257c-0.068,0.175-0.104,0.437-0.104,0.681v5.013h-2.148v-5.973
				c0-0.979-0.035-1.799-0.07-2.533H144.853z M122.296,17.54c2.758,0,3.668,2.271,3.668,4.141c0,0.402-0.035,0.716-0.07,0.908
				h-5.693c0.051,1.536,1.238,2.2,2.619,2.2c0.996,0,1.693-0.156,2.357-0.384l0.314,1.468c-0.734,0.313-1.746,0.541-2.969,0.541
				c-2.76,0-4.385-1.693-4.385-4.295C118.138,19.758,119.572,17.54,122.296,17.54z M113.492,13.838h2.146v12.399h-2.146V13.838z
				 M96.455,19.059c-0.838,0-1.711,0.263-2.287,0.63l-0.42-1.398c0.629-0.384,1.729-0.751,3.074-0.751
				c2.725,0,3.512,1.73,3.512,3.598v3.057c0,0.769,0.033,1.52,0.137,2.043h-1.938l-0.156-0.942h-0.053
				c-0.506,0.663-1.398,1.135-2.516,1.135c-1.713,0-2.672-1.24-2.672-2.532c0-2.131,1.902-3.231,5.049-3.214v-0.14
				C98.185,19.986,97.955,19.059,96.455,19.059z M83.753,14.187c0.734,0,1.189,0.507,1.205,1.17c0,0.628-0.471,1.153-1.223,1.153
				c-0.715,0-1.186-0.524-1.186-1.153C82.55,14.693,83.039,14.187,83.753,14.187z M84.818,17.732v8.505h-2.145v-8.505H84.818z
				 M55.274,14.466h2.741l3.825,11.771h-2.323l-1.064-3.336h-3.722l-1.014,3.336H51.5L55.274,14.466z M40.969,53.5
				c0,2.074-1.691,3.755-3.764,3.755H21.074c-2.075,0-3.766-1.682-3.766-3.755V17.654c0-2.074,1.691-3.76,3.766-3.76h16.131
				c2.073,0,3.764,1.686,3.764,3.76V53.5z M66.898,54.36l-2.139-6.722h-7.443l-2.042,6.722h-3.801l7.367-22.899h4.557l7.41,22.899
				H66.898z M67.732,26.238h-2.115l-3.161-8.505h2.324l1.377,4.314c0.246,0.751,0.42,1.432,0.578,2.13h0.053
				c0.156-0.698,0.35-1.364,0.576-2.13l1.363-4.314h2.252L67.732,26.238z M72.154,23.898c0-2.131,1.904-3.231,5.047-3.214v-0.14
				c0-0.558-0.227-1.485-1.729-1.485c-0.84,0-1.711,0.263-2.287,0.63l-0.42-1.398c0.629-0.384,1.729-0.751,3.074-0.751
				c2.725,0,3.51,1.73,3.51,3.598v3.057c0,0.769,0.035,1.52,0.141,2.043H77.55l-0.156-0.942h-0.053
				c-0.506,0.663-1.398,1.135-2.516,1.135C73.115,26.43,72.154,25.19,72.154,23.898z M86.521,52.565
				c-1.363,1.444-3.064,2.169-5.088,2.169c-2.191,0-3.762-0.78-4.715-2.348v8.67H73.05V43.274c0-1.766-0.047-3.572-0.141-5.427
				h3.229l0.203,2.616h0.064c1.229-1.964,3.084-2.948,5.578-2.948c1.947,0,3.568,0.764,4.879,2.308
				c1.297,1.537,1.951,3.568,1.951,6.081C88.814,48.721,88.052,50.931,86.521,52.565z M90.337,26.238h-2.145V13.838h2.145V26.238z
				 M104.662,52.565c-1.367,1.444-3.061,2.169-5.09,2.169c-2.186,0-3.758-0.78-4.711-2.348v8.67h-3.67V43.274
				c0-1.766-0.049-3.572-0.137-5.427h3.219l0.213,2.616h0.062c1.232-1.964,3.084-2.948,5.576-2.948c1.947,0,3.572,0.764,4.875,2.308
				c1.307,1.537,1.955,3.568,1.955,6.081C106.955,48.721,106.193,50.931,104.662,52.565z M107.181,26.43
				c-1.1,0-2.078-0.418-2.688-1.467h-0.037l-0.104,1.274h-1.834c0.033-0.576,0.07-1.519,0.07-2.393V13.838h2.146v5.064h0.035
				c0.523-0.821,1.449-1.363,2.725-1.363c2.078,0,3.564,1.73,3.545,4.314C111.041,24.911,109.103,26.43,107.181,26.43z
				 M125.652,52.694c-1.498,1.338-3.576,2.003-6.24,2.003c-2.469,0-4.443-0.478-5.934-1.424l0.852-3.057
				c1.607,0.946,3.371,1.427,5.293,1.427c1.389,0,2.461-0.315,3.232-0.934c0.766-0.621,1.15-1.452,1.15-2.507
				c0-0.917-0.316-1.699-0.947-2.336c-0.639-0.634-1.686-1.218-3.158-1.766c-4.006-1.492-6.014-3.678-6.014-6.554
				c0-1.88,0.699-3.424,2.119-4.625c1.414-1.197,3.291-1.799,5.627-1.799c2.082,0,3.814,0.365,5.199,1.084l-0.926,2.991
				c-1.291-0.7-2.758-1.055-4.395-1.055c-1.295,0-2.309,0.329-3.037,0.947c-0.609,0.575-0.918,1.267-0.918,2.08
				c0,0.899,0.354,1.65,1.055,2.248c0.613,0.541,1.723,1.127,3.324,1.76c1.979,0.787,3.422,1.721,4.355,2.789
				c0.926,1.064,1.391,2.387,1.391,3.97C127.681,49.887,127.001,51.477,125.652,52.694z M138.587,40.596h-4.049v8.027
				c0,2.036,0.719,3.047,2.146,3.047c0.656,0,1.193-0.048,1.629-0.159l0.105,2.779c-0.729,0.271-1.678,0.409-2.855,0.409
				c-1.443,0-2.582-0.436-3.395-1.325c-0.824-0.878-1.23-2.365-1.23-4.449v-8.329h-2.41v-2.75h2.41v-3.022l3.6-1.087v4.109h4.049
				V40.596z M136.517,26.43c-2.391,0-4.26-1.642-4.26-4.383c0-2.795,1.834-4.507,4.402-4.507c2.529,0,4.225,1.783,4.225,4.367
				C140.884,25.034,138.685,26.43,136.517,26.43z M153.642,52.226c-1.521,1.672-3.537,2.509-6.045,2.509
				c-2.43,0-4.367-0.803-5.803-2.412c-1.438-1.604-2.152-3.64-2.152-6.083c0-2.558,0.74-4.655,2.223-6.285
				c1.486-1.636,3.479-2.441,5.994-2.441c2.434,0,4.379,0.796,5.852,2.413c1.4,1.554,2.102,3.576,2.102,6.042
				C155.812,48.515,155.091,50.59,153.642,52.226z M157.435,17.732h1.203v-1.59l2.115-0.594v2.184h2.041v1.606h-2.041v3.756
				c0,1.048,0.279,1.572,1.1,1.572c0.385,0,0.596-0.019,0.838-0.087l0.035,1.624c-0.312,0.122-0.889,0.228-1.555,0.228
				c-0.803,0-1.449-0.262-1.852-0.699c-0.471-0.489-0.682-1.275-0.682-2.393v-4h-1.203V17.732z M166.855,41.074
				c-0.361-0.065-0.752-0.093-1.156-0.093c-1.293,0-2.285,0.487-2.988,1.458c-0.615,0.863-0.92,1.935-0.92,3.258v8.663h-3.668
				V43.041c0-1.892-0.035-3.625-0.1-5.194h3.193l0.137,3.162h0.102c0.383-1.084,0.99-1.959,1.834-2.611
				c0.816-0.595,1.701-0.881,2.652-0.881c0.34,0,0.646,0.018,0.914,0.061V41.074z M167.41,21.138v5.1h-2.146V13.838h2.146v5.047
				h0.035c0.262-0.401,0.629-0.734,1.066-0.96c0.436-0.246,0.943-0.386,1.484-0.386c1.449,0,2.971,0.961,2.971,3.686v5.013h-2.15
				v-4.785c0-1.223-0.453-2.166-1.643-2.166c-0.838,0-1.43,0.559-1.676,1.205C167.429,20.684,167.41,20.911,167.41,21.138z
				 M182.554,46.994h-11.01c0.045,1.629,0.574,2.871,1.598,3.73c0.928,0.772,2.127,1.158,3.602,1.158
				c1.635,0,3.113-0.259,4.449-0.788l0.58,2.551c-1.559,0.685-3.408,1.017-5.543,1.017c-2.555,0-4.564-0.749-6.025-2.254
				c-1.461-1.506-2.197-3.528-2.197-6.062c0-2.496,0.686-4.564,2.039-6.225c1.434-1.765,3.357-2.646,5.779-2.646
				c2.385,0,4.182,0.882,5.402,2.646c0.971,1.409,1.461,3.143,1.461,5.205C182.689,45.978,182.64,46.534,182.554,46.994z
				 M106.708,19.217c-0.873,0-1.676,0.629-1.902,1.571c-0.035,0.158-0.07,0.35-0.07,0.56v1.38c0,0.174,0.02,0.35,0.055,0.507
				c0.227,0.872,0.977,1.501,1.902,1.501c1.346,0,2.164-1.065,2.164-2.793C108.857,20.44,108.142,19.217,106.708,19.217z
				 M122.173,19.008c-1.326,0-1.887,1.205-1.973,2.078h3.738C123.955,20.299,123.605,19.008,122.173,19.008z M136.605,19.094
				c-1.518,0-2.129,1.485-2.129,2.899c0,1.643,0.818,2.883,2.113,2.883c1.221,0,2.076-1.188,2.076-2.917
				C138.666,20.631,138.074,19.094,136.605,19.094z M95.267,23.67c0,0.838,0.541,1.223,1.221,1.223c0.875,0,1.486-0.559,1.697-1.17
				c0.051-0.157,0.051-0.314,0.051-0.473v-1.168C96.716,22.064,95.267,22.378,95.267,23.67z M178.82,19.008
				c-1.326,0-1.887,1.205-1.975,2.078h3.736C180.601,20.299,180.251,19.008,178.82,19.008z"/>
		</g>
	</g>
	<g>
		<path fill="#FFFFFF" d="M190.41,71.127H9.588C4.301,71.127,0,66.832,0,61.553V9.588C0,4.301,4.301,0,9.588,0H190.41
			c5.287,0,9.59,4.301,9.59,9.588v51.965C200,66.832,195.697,71.127,190.41,71.127z M9.588,2.483c-3.918,0-7.104,3.188-7.104,7.105
			v51.965c0,3.91,3.187,7.092,7.104,7.092H190.41c3.916,0,7.105-3.182,7.105-7.092V9.588c0-3.917-3.189-7.105-7.105-7.105H9.588z"/>
	</g>
</g>
</svg>
