<svg xmlns="http://www.w3.org/2000/svg" width="250" height="86.888" viewBox="0 0 250 86.888"><path fill="#EE2E55" d="M32.94 21.956h4.733c.31 0 .563-.255.563-.552 0-.313-.253-.566-.563-.566h-4.733c-.301 0-.559.253-.559.566.001.297.259.552.559.552zm2.366 41.483c-1.354 0-2.459 1.108-2.459 2.468 0 1.356 1.105 2.461 2.459 2.461 1.361 0 2.463-1.104 2.463-2.461 0-1.359-1.102-2.468-2.463-2.468zm-12.077-2.109h24.158v-35.728h-24.158v35.728zm77.457-11.733c-1.145 0-2.179.378-3.113 1.138-.935.77-1.54 1.766-1.829 2.999-.141.577-.212 1.047-.212 1.421v3.479c0 1.522.458 2.809 1.396 3.854.93 1.037 2.144 1.563 3.632 1.563 1.744 0 3.116-.669 4.089-2.021.974-1.347 1.457-3.124 1.457-5.338 0-2.03-.452-3.71-1.371-5.025-1.01-1.369-2.356-2.07-4.049-2.07zm84.721-.288c-1.857 0-3.279.825-4.248 2.485-.842 1.367-1.252 3.035-1.252 5.01 0 1.923.41 3.562 1.252 4.933.994 1.657 2.398 2.482 4.215 2.482 1.766 0 3.162-.836 4.158-2.534.867-1.387 1.299-3.051 1.299-4.962 0-1.912-.414-3.562-1.242-4.929-.989-1.66-2.374-2.485-4.182-2.485zm-61.753.288c-1.15 0-2.179.378-3.114 1.138-.932.77-1.544 1.766-1.832 2.999-.143.577-.211 1.047-.211 1.421v3.479c0 1.522.459 2.809 1.396 3.854.93 1.037 2.143 1.563 3.627 1.563 1.758 0 3.118-.669 4.094-2.021.977-1.347 1.467-3.124 1.467-5.338 0-2.03-.463-3.71-1.377-5.025-1.012-1.369-2.36-2.07-4.05-2.07zm-47.994-7.477h-.081c-.291 1.233-.744 3.051-1.381 5.463l-2.409 7.57h7.783l-2.441-7.57c-.264-.778-.757-2.6-1.471-5.463zm144.971 6.962c-1.516 0-2.748.647-3.697 1.9-.773 1.001-1.236 2.206-1.377 3.604h9.676c.025-1.372-.27-2.557-.898-3.566-.809-1.284-2.043-1.938-3.704-1.938zm-124.487-20.626c.064-.2.064-.399.064-.599v-1.479c-1.922-.021-3.756.375-3.756 2.01 0 1.062.685 1.55 1.547 1.55 1.105 0 1.878-.709 2.145-1.482zm-25.344-6.766c-.288-.906-.531-1.922-.752-2.784h-.046c-.219.862-.463 1.899-.707 2.784l-1.148 3.671h3.824l-1.171-3.671zm168.634-21.69h-228.87c-5.825 0-10.564 4.738-10.564 10.565v65.771c0 5.818 4.739 10.551 10.564 10.551h228.87c5.826 0 10.566-4.732 10.566-10.551v-65.771c0-5.827-4.74-10.565-10.566-10.565zm-14.514 20.631c3.492 0 4.643 2.872 4.643 5.238 0 .509-.045.908-.09 1.15h-7.207c.066 1.944 1.57 2.783 3.316 2.783 1.26 0 2.145-.196 2.984-.484l.398 1.856c-.93.397-2.211.684-3.758.684-3.492 0-5.549-2.142-5.549-5.436.002-2.985 1.814-5.791 5.263-5.791zm-43.146.242l.133 1.614h.068c.484-.841 1.656-1.856 3.447-1.856 1.879 0 3.824 1.215 3.824 4.618v6.389h-2.719v-6.079c0-1.546-.574-2.719-2.057-2.719-1.082 0-1.834.773-2.123 1.593-.088.221-.131.553-.131.862v6.343h-2.719v-7.558c0-1.24-.045-2.277-.09-3.207h2.367zm-28.551-.242c3.492 0 4.643 2.872 4.643 5.238 0 .509-.045.908-.09 1.15h-7.207c.066 1.944 1.57 2.783 3.316 2.783 1.26 0 2.143-.196 2.984-.484l.396 1.856c-.928.397-2.209.684-3.756.684-3.492 0-5.549-2.142-5.549-5.436.001-2.985 1.814-5.791 5.263-5.791zm-11.144-4.687h2.717v15.693h-2.717v-15.693zm-21.563 6.608c-1.062 0-2.167.334-2.896.798l-.531-1.77c.795-.486 2.188-.949 3.89-.949 3.449 0 4.446 2.188 4.446 4.552v3.87c0 .973.043 1.922.174 2.585h-2.454l-.197-1.192h-.066c-.641.84-1.769 1.438-3.184 1.438-2.168 0-3.383-1.571-3.383-3.207 0-2.697 2.408-4.091 6.389-4.067v-.177c-.001-.707-.289-1.881-2.188-1.881zm-16.078-6.167c.929 0 1.504.644 1.525 1.48 0 .797-.597 1.461-1.549 1.461-.906 0-1.502-.664-1.502-1.461.001-.837.619-1.48 1.526-1.48zm1.347 4.488v10.765h-2.717v-10.765h2.717zm-37.395-4.134h3.471l4.841 14.898h-2.939l-1.348-4.223h-4.71l-1.283 4.223h-2.808l4.776-14.898zm-18.107 49.406c0 2.626-2.14 4.754-4.764 4.754h-20.417c-2.627 0-4.767-2.128-4.767-4.754v-45.37c0-2.625 2.14-4.759 4.767-4.759h20.417c2.624 0 4.764 2.134 4.764 4.759v45.37zm32.82 1.089l-2.707-8.508h-9.421l-2.583 8.508h-4.812l9.324-28.985h5.769l9.38 28.985h-4.95zm1.055-35.596h-2.677l-4.001-10.765h2.941l1.744 5.461c.311.949.531 1.812.73 2.697h.067c.198-.886.442-1.727.729-2.697l1.724-5.461h2.853l-4.11 10.765zm5.597-2.961c0-2.697 2.409-4.091 6.389-4.067v-.177c0-.707-.288-1.881-2.189-1.881-1.062 0-2.165.334-2.895.798l-.531-1.77c.795-.486 2.188-.949 3.891-.949 3.448 0 4.443 2.188 4.443 4.552v3.87c0 .973.043 1.922.177 2.585h-2.455l-.197-1.192h-.068c-.642.84-1.77 1.438-3.184 1.438-2.166 0-3.381-1.572-3.381-3.207zm18.184 36.285c-1.726 1.827-3.879 2.745-6.44 2.745-2.774 0-4.76-.987-5.968-2.973v10.977h-4.641v-22.51c0-2.235-.061-4.521-.178-6.869h4.086l.256 3.312h.081c1.556-2.486 3.903-3.731 7.062-3.731 2.465 0 4.517.966 6.175 2.921 1.644 1.945 2.471 4.517 2.471 7.696 0 3.565-.965 6.364-2.904 8.432zm4.834-33.324h-2.718v-15.694h2.718v15.694zm18.13 33.324c-1.73 1.827-3.875 2.745-6.443 2.745-2.767 0-4.755-.987-5.963-2.973v10.977h-4.646v-22.51c0-2.235-.06-4.521-.172-6.869h4.075l.269 3.312h.08c1.559-2.486 3.901-3.731 7.055-3.731 2.467 0 4.523.966 6.172 2.921 1.652 1.945 2.475 4.517 2.475 7.696 0 3.565-.965 6.364-2.902 8.432zm3.189-33.078c-1.393 0-2.631-.531-3.404-1.858h-.045l-.131 1.612h-2.322c.045-.729.09-1.921.09-3.028v-12.666h2.717v6.409h.045c.662-1.039 1.834-1.723 3.449-1.723 2.631 0 4.508 2.188 4.486 5.459 0 3.87-2.453 5.795-4.885 5.795zm23.379 33.24c-1.898 1.694-4.527 2.535-7.898 2.535-3.125 0-5.625-.604-7.512-1.803l1.078-3.87c2.033 1.199 4.268 1.807 6.699 1.807 1.758 0 3.115-.399 4.092-1.182.969-.786 1.457-1.838 1.457-3.173 0-1.16-.402-2.149-1.199-2.957-.811-.803-2.133-1.542-3.998-2.235-5.07-1.888-7.609-4.655-7.609-8.295 0-2.379.885-4.334 2.68-5.854 1.793-1.516 4.164-2.276 7.121-2.276 2.637 0 4.83.462 6.582 1.373l-1.172 3.785c-1.635-.885-3.49-1.335-5.562-1.335-1.637 0-2.92.416-3.844 1.2-.771.728-1.16 1.602-1.16 2.631 0 1.139.445 2.089 1.332 2.845.775.685 2.182 1.427 4.209 2.229 2.504.995 4.332 2.179 5.512 3.53 1.172 1.347 1.764 3.021 1.764 5.024-.001 2.468-.865 4.481-2.572 6.021zm16.373-15.312h-5.127v10.161c0 2.577.91 3.856 2.717 3.856.832 0 1.514-.061 2.062-.202l.133 3.519c-.92.344-2.121.517-3.611.517-1.826 0-3.271-.551-4.299-1.677-1.041-1.112-1.555-2.993-1.555-5.631v-10.543h-3.051v-3.479h3.051v-3.825l4.553-1.376v5.201h5.127v3.479zm-2.619-17.928c-3.029 0-5.395-2.081-5.395-5.55 0-3.537 2.32-5.703 5.57-5.703 3.205 0 5.35 2.255 5.35 5.526 0 3.957-2.785 5.727-5.525 5.727zm21.674 32.648c-1.928 2.116-4.479 3.175-7.654 3.175-3.072 0-5.525-1.016-7.342-3.052-1.818-2.032-2.727-4.607-2.727-7.699 0-3.237.938-5.893 2.814-7.954 1.881-2.071 4.404-3.09 7.586-3.09 3.08 0 5.543 1.008 7.406 3.053 1.771 1.967 2.662 4.526 2.662 7.648.001 3.221-.911 5.848-2.745 7.919zm4.799-43.659h1.525v-2.013l2.676-.752v2.765h2.586v2.033h-2.586v4.753c0 1.327.354 1.99 1.391 1.99.488 0 .752-.023 1.062-.11l.045 2.056c-.398.153-1.127.289-1.967.289-1.018 0-1.838-.333-2.346-.886-.596-.618-.861-1.614-.861-3.029v-5.062h-1.525v-2.034zm11.922 29.543c-.457-.082-.949-.118-1.463-.118-1.633 0-2.891.617-3.783 1.847-.775 1.092-1.162 2.448-1.162 4.124v10.966h-4.643v-14.329c0-2.395-.043-4.589-.125-6.574h4.041l.174 4.002h.127c.484-1.372 1.256-2.479 2.322-3.306 1.031-.753 2.154-1.115 3.357-1.115.428 0 .816.023 1.154.078v4.425zm.705-25.233v6.455h-2.719v-15.694h2.719v6.388h.043c.332-.508.797-.928 1.35-1.215.553-.312 1.193-.486 1.879-.486 1.836 0 3.76 1.215 3.76 4.664v6.343h-2.721v-6.056c0-1.548-.576-2.742-2.078-2.742-1.061 0-1.812.709-2.121 1.525-.091.244-.112.531-.112.818zm19.17 32.727h-13.938c.055 2.062.729 3.633 2.023 4.721 1.174.978 2.689 1.466 4.557 1.466 2.068 0 3.941-.328 5.633-.997l.732 3.229c-1.971.867-4.312 1.287-7.016 1.287-3.232 0-5.777-.948-7.627-2.854-1.848-1.906-2.779-4.465-2.779-7.674 0-3.159.865-5.776 2.58-7.879 1.816-2.233 4.252-3.349 7.314-3.349 3.02 0 5.295 1.115 6.838 3.349 1.23 1.783 1.85 3.979 1.85 6.589.001.826-.06 1.529-.167 2.112zm-96-35.159c-1.104 0-2.121.798-2.408 1.99-.045.199-.09.441-.09.707v1.746c0 .221.023.443.066.643.287 1.104 1.238 1.901 2.41 1.901 1.703 0 2.742-1.351 2.742-3.536 0-1.901-.908-3.451-2.72-3.451zm19.572-.264c-1.68 0-2.387 1.525-2.498 2.63h4.73c.022-.994-.42-2.63-2.232-2.63zm18.267.111c-1.924 0-2.697 1.878-2.697 3.669 0 2.078 1.039 3.648 2.676 3.648 1.547 0 2.631-1.504 2.631-3.691 0-1.681-.752-3.626-2.61-3.626zm-52.322 5.79c0 1.062.686 1.55 1.547 1.55 1.105 0 1.879-.709 2.145-1.481.066-.2.066-.399.066-.599v-1.479c-1.923-.023-3.758.374-3.758 2.009zm105.752-5.901c-1.68 0-2.387 1.525-2.498 2.63h4.73c.024-.994-.419-2.63-2.232-2.63z"/></svg>