<?xml version="1.0" encoding="utf-8"?>
<!-- Generator: Adobe Illustrator 16.0.0, SVG Export Plug-In . SVG Version: 6.00 Build 0)  -->
<!DOCTYPE svg PUBLIC "-//W3C//DTD SVG 1.1//EN" "http://www.w3.org/Graphics/SVG/1.1/DTD/svg11.dtd">
<svg version="1.1" id="Layer_1" xmlns="http://www.w3.org/2000/svg" xmlns:xlink="http://www.w3.org/1999/xlink" x="0px" y="0px"
	 width="122px" height="123px" viewBox="27.01 94.354 122 123" enable-background="new 27.01 94.354 122 123" xml:space="preserve">
<g>
	<path fill="none" stroke="#fff" stroke-width="3.3587" stroke-miterlimit="10" d="M38.778,130.32
		c12-12.081,28.625-19.56,46.997-19.56"/>
	<path fill="none" stroke="#fff" stroke-width="3.3587" stroke-miterlimit="10" d="M28.864,177
		c0-15.633,6.306-29.796,16.512-40.082c10.312-10.393,24.604-16.829,40.398-16.829"/>
	<path fill="none" stroke="#fff" stroke-width="3.3587" stroke-miterlimit="10" d="M52.29,210.802
		c-8.704-8.623-14.096-20.583-14.096-33.801c0-26.275,21.307-47.581,47.581-47.581"/>
	<path fill="none" stroke="#fff" stroke-width="3.3587" stroke-miterlimit="10" d="M112.665,204.204
		c-6.91,6.831-16.408,11.048-26.89,11.048c-21.123,0-38.251-17.128-38.251-38.252c0-21.123,17.129-38.251,38.251-38.251"/>
	<path fill="none" stroke="#fff" stroke-width="3.3587" stroke-miterlimit="10" d="M85.775,148.079
		c15.971,0,28.922,12.951,28.922,28.922c0,15.972-12.951,28.922-28.922,28.922S56.854,192.972,56.854,177
		C56.854,161.029,69.804,148.079,85.775,148.079z"/>
	<path fill="none" stroke="#fff" stroke-width="3.3587" stroke-miterlimit="10" d="M85.775,157.408
		c10.819,0,19.592,8.773,19.592,19.592s-8.773,19.592-19.592,19.592c-10.819,0-19.592-8.773-19.592-19.592
		S74.956,157.408,85.775,157.408z"/>
	<path fill="none" stroke="#fff" stroke-width="3.3587" stroke-miterlimit="10" d="M85.775,166.738
		c5.667,0,10.263,4.596,10.263,10.263s-4.595,10.263-10.263,10.263c-5.667,0-10.263-4.596-10.263-10.263
		C75.512,171.333,80.108,166.738,85.775,166.738z"/>
	<circle fill="#fff" cx="144.573" cy="206.441" r="4.292"/>
	<circle fill="#fff" cx="144.573" cy="184.972" r="4.292"/>
	<circle fill="#fff" cx="144.573" cy="163.503" r="4.292"/>
	<circle fill="#fff" cx="144.573" cy="142.034" r="4.292"/>
	<circle fill="#fff" cx="144.573" cy="120.565" r="4.292"/>
	<circle fill="#fff" cx="144.573" cy="99.097" r="4.292"/>
</g>
</svg>
